<?xml version="1.0" encoding="UTF-8" standalone="no"?>
<!DOCTYPE svg PUBLIC "-//W3C//DTD SVG 1.1//EN"
 "http://www.w3.org/Graphics/SVG/1.1/DTD/svg11.dtd">
<!-- Generated by graphviz version 2.43.0 (0)
 -->
<!-- Title: a_graph Pages: 1 -->
<svg width="3890pt" height="443pt"
 viewBox="0.00 0.00 3890.00 443.00" xmlns="http://www.w3.org/2000/svg" xmlns:xlink="http://www.w3.org/1999/xlink">
<g id="graph0" class="graph" transform="scale(1 1) rotate(0) translate(4 439)">
<title>a_graph</title>
<polygon fill="white" stroke="transparent" points="-4,4 -4,-439 3886,-439 3886,4 -4,4"/>
<!-- T1263 -->
<g id="node1" class="node">
<title>T1263</title>
<polygon fill="none" stroke="#0058ad" points="0,-405.5 0,-434.5 788,-434.5 788,-405.5 0,-405.5"/>
<text text-anchor="middle" x="30.5" y="-416.3" font-family="Times,serif" font-size="14.00" fill="#0058ad">a 5 18</text>
<polyline fill="none" stroke="#0058ad" points="61,-405.5 61,-434.5 "/>
<text text-anchor="middle" x="424.5" y="-416.3" font-family="Times,serif" font-size="14.00" fill="#0058ad">r 12 [3 4 5 6 1 12 15 16 14 8 9 23 2 20 30 26 10 11 32 33 34 25 40 41 29 52 55 61 65 72 70 71 78]</text>
</g>
<!-- T1254 -->
<g id="node3" class="node">
<title>T1254</title>
<polygon fill="none" stroke="#0058ad" points="437,-324.5 437,-353.5 2507,-353.5 2507,-324.5 437,-324.5"/>
<text text-anchor="middle" x="800.5" y="-335.3" font-family="Times,serif" font-size="14.00" fill="#0058ad">r 12 [3 4 5 6 1 12 15 16 14 8 9 23 2 20 30 26 10 11 32 33 34 25 40 41 29 52 55 61 65 72 70 71 78]</text>
<polyline fill="none" stroke="#0058ad" points="1164,-324.5 1164,-353.5 "/>
<text text-anchor="middle" x="1664.5" y="-335.3" font-family="Times,serif" font-size="14.00" fill="#0058ad">r 7 [1 2 6 4 10 12 14 13 15 17 19 22 24 26 27 30 28 31 33 34 35 36 38 40 41 42 44 46 48 49 50 51 47 52 53 54 55 58 56 59 61 60 62 68]</text>
<polyline fill="none" stroke="#0058ad" points="2165,-324.5 2165,-353.5 "/>
<text text-anchor="middle" x="2200" y="-335.3" font-family="Times,serif" font-size="14.00" fill="#0058ad">a 12 77</text>
<polyline fill="none" stroke="#0058ad" points="2235,-324.5 2235,-353.5 "/>
<text text-anchor="middle" x="2371" y="-335.3" font-family="Times,serif" font-size="14.00" fill="#0058ad">r 11 [1 2 3 7 11 4 5 17 18 22 34 30]</text>
</g>
<!-- T1263&#45;&gt;T1254 -->
<g id="edge1" class="edge">
<title>T1263:f1&#45;&gt;T1254:f2</title>
<path fill="none" stroke="#5b00c0" d="M789,-420C826.4,-420 2074.33,-395.69 2191.24,-359.43"/>
<polygon fill="#5b00c0" stroke="#5b00c0" points="2193.35,-362.24 2200,-354 2189.66,-356.3 2193.35,-362.24"/>
<text text-anchor="middle" x="2091.5" y="-375.8" font-family="Times,serif" font-size="14.00" fill="#5b00c0">rw</text>
</g>
<!-- T1249 -->
<g id="node2" class="node">
<title>T1249</title>
<polygon fill="none" stroke="#0058ad" points="430,-81.5 430,-110.5 1218,-110.5 1218,-81.5 430,-81.5"/>
<text text-anchor="middle" x="460.5" y="-92.3" font-family="Times,serif" font-size="14.00" fill="#0058ad">a 7 71</text>
<polyline fill="none" stroke="#0058ad" points="491,-81.5 491,-110.5 "/>
<text text-anchor="middle" x="854.5" y="-92.3" font-family="Times,serif" font-size="14.00" fill="#0058ad">r 12 [3 4 5 6 1 12 15 16 14 8 9 23 2 20 30 26 10 11 32 33 34 25 40 41 29 52 55 61 65 72 70 71 78]</text>
</g>
<!-- T1249&#45;&gt;T1254 -->
<g id="edge2" class="edge">
<title>T1249:f1&#45;&gt;T1254:f2</title>
<path fill="none" stroke="#5b00c0" d="M855,-111C855,-124.59 384.58,-199.47 376,-210 348.88,-243.3 354.79,-277.59 387,-306 405.07,-321.94 2049.1,-300.79 2190.35,-321.02"/>
<polygon fill="#5b00c0" stroke="#5b00c0" points="2189.41,-324.39 2200,-324 2191.48,-317.7 2189.41,-324.39"/>
<text text-anchor="middle" x="385.5" y="-213.8" font-family="Times,serif" font-size="14.00" fill="#5b00c0">rw</text>
</g>
<!-- T1261 -->
<g id="node8" class="node">
<title>T1261</title>
<polygon fill="none" stroke="#0058ad" points="166,-0.5 166,-29.5 2750,-29.5 2750,-0.5 166,-0.5"/>
<text text-anchor="middle" x="700.5" y="-11.3" font-family="Times,serif" font-size="14.00" fill="#0058ad">r 7 [1 2 6 4 10 12 14 13 15 17 19 22 24 26 27 30 28 31 33 34 35 36 38 40 41 42 44 46 48 49 50 51 47 52 53 54 55 58 56 59 61 60 62 68 69 70 71]</text>
<polyline fill="none" stroke="#0058ad" points="1235,-0.5 1235,-29.5 "/>
<text text-anchor="middle" x="1598.5" y="-11.3" font-family="Times,serif" font-size="14.00" fill="#0058ad">r 12 [3 4 5 6 1 12 15 16 14 8 9 23 2 20 30 26 10 11 32 33 34 25 40 41 29 52 55 61 65 72 70 71 78]</text>
<polyline fill="none" stroke="#0058ad" points="1962,-0.5 1962,-29.5 "/>
<text text-anchor="middle" x="2325.5" y="-11.3" font-family="Times,serif" font-size="14.00" fill="#0058ad">r 12 [3 4 5 6 1 12 15 16 14 8 9 23 2 20 30 26 10 11 32 33 34 25 40 41 29 52 55 61 65 72 70 71 78]</text>
<polyline fill="none" stroke="#0058ad" points="2689,-0.5 2689,-29.5 "/>
<text text-anchor="middle" x="2719.5" y="-11.3" font-family="Times,serif" font-size="14.00" fill="#0058ad">a 6 46</text>
</g>
<!-- T1249&#45;&gt;T1261 -->
<g id="edge3" class="edge">
<title>T1249:f0&#45;&gt;T1261:f0</title>
<path fill="none" stroke="#c000a5" d="M460,-81C460,24.32 683.87,-127.95 699.18,-40.24"/>
<polygon fill="#c000a5" stroke="#c000a5" points="702.69,-40.25 700,-30 695.71,-39.69 702.69,-40.25"/>
<text text-anchor="middle" x="705.5" y="-51.8" font-family="Times,serif" font-size="14.00" fill="#c000a5">wr</text>
</g>
<!-- T1233 -->
<g id="node6" class="node">
<title>T1233</title>
<polygon fill="none" stroke="#0058ad" points="2202.5,-81.5 2202.5,-110.5 2999.5,-110.5 2999.5,-81.5 2202.5,-81.5"/>
<text text-anchor="middle" x="2566" y="-92.3" font-family="Times,serif" font-size="14.00" fill="#0058ad">r 12 [3 4 5 6 1 12 15 16 14 8 9 23 2 20 30 26 10 11 32 33 34 25 40 41 29 52 55 61 65 72 70 71 78]</text>
<polyline fill="none" stroke="#0058ad" points="2929.5,-81.5 2929.5,-110.5 "/>
<text text-anchor="middle" x="2964.5" y="-92.3" font-family="Times,serif" font-size="14.00" fill="#0058ad">a 11 36</text>
</g>
<!-- T1254&#45;&gt;T1233 -->
<g id="edge5" class="edge">
<title>T1254:f3&#45;&gt;T1233:f1</title>
<path fill="none" stroke="#5b00c0" d="M2371,-324C2371,-218.34 2414.3,-179.71 2507,-129 2527.46,-117.81 2894.74,-133.38 2956.28,-116.51"/>
<polygon fill="#5b00c0" stroke="#5b00c0" points="2958.42,-119.3 2965,-111 2954.68,-113.38 2958.42,-119.3"/>
<text text-anchor="middle" x="2409.5" y="-213.8" font-family="Times,serif" font-size="14.00" fill="#5b00c0">rw</text>
</g>
<!-- T1234 -->
<g id="node7" class="node">
<title>T1234</title>
<polygon fill="none" stroke="#0058ad" points="523,-243.5 523,-272.5 2053,-272.5 2053,-243.5 523,-243.5"/>
<text text-anchor="middle" x="553.5" y="-254.3" font-family="Times,serif" font-size="14.00" fill="#0058ad">a 7 69</text>
<polyline fill="none" stroke="#0058ad" points="584,-243.5 584,-272.5 "/>
<text text-anchor="middle" x="936" y="-254.3" font-family="Times,serif" font-size="14.00" fill="#0058ad">r 12 [3 4 5 6 1 12 15 16 14 8 9 23 2 20 30 26 10 11 32 33 34 25 40 41 29 52 55 61 65 72 70 71]</text>
<polyline fill="none" stroke="#0058ad" points="1288,-243.5 1288,-272.5 "/>
<text text-anchor="middle" x="1640" y="-254.3" font-family="Times,serif" font-size="14.00" fill="#0058ad">r 12 [3 4 5 6 1 12 15 16 14 8 9 23 2 20 30 26 10 11 32 33 34 25 40 41 29 52 55 61 65 72 70 71]</text>
<polyline fill="none" stroke="#0058ad" points="1992,-243.5 1992,-272.5 "/>
<text text-anchor="middle" x="2022.5" y="-254.3" font-family="Times,serif" font-size="14.00" fill="#0058ad">a 7 70</text>
</g>
<!-- T1254&#45;&gt;T1234 -->
<g id="edge4" class="edge">
<title>T1254:f1&#45;&gt;T1234:f0</title>
<path fill="none" stroke="#5b00c0" d="M1665,-324C1665,-80.13 584.27,-507.94 553.66,-283.1"/>
<polygon fill="#5b00c0" stroke="#5b00c0" points="557.15,-282.75 553,-273 550.16,-283.21 557.15,-282.75"/>
<text text-anchor="middle" x="1668.5" y="-294.8" font-family="Times,serif" font-size="14.00" fill="#5b00c0">rw</text>
</g>
<!-- T1228 -->
<g id="node4" class="node">
<title>T1228</title>
<polygon fill="none" stroke="#0058ad" points="765.5,-162.5 765.5,-191.5 1836.5,-191.5 1836.5,-162.5 765.5,-162.5"/>
<text text-anchor="middle" x="800.5" y="-173.3" font-family="Times,serif" font-size="14.00" fill="#0058ad">a 12 78</text>
<polyline fill="none" stroke="#0058ad" points="835.5,-162.5 835.5,-191.5 "/>
<text text-anchor="middle" x="1336" y="-173.3" font-family="Times,serif" font-size="14.00" fill="#0058ad">r 7 [1 2 6 4 10 12 14 13 15 17 19 22 24 26 27 30 28 31 33 34 35 36 38 40 41 42 44 46 48 49 50 51 47 52 53 54 55 58 56 59 61 60 62 68]</text>
</g>
<!-- T1228&#45;&gt;T1263 -->
<g id="edge11" class="edge">
<title>T1228:f0&#45;&gt;T1263:f1</title>
<path fill="none" stroke="#c000a5" d="M764,-177C731.24,-177 496.86,-189.88 471,-210 403.39,-262.59 423.29,-312.04 424.9,-394.99"/>
<polygon fill="#c000a5" stroke="#c000a5" points="421.4,-395.04 425,-405 428.4,-394.97 421.4,-395.04"/>
<text text-anchor="middle" x="431.5" y="-294.8" font-family="Times,serif" font-size="14.00" fill="#c000a5">wr</text>
</g>
<!-- T1228&#45;&gt;T1249 -->
<g id="edge6" class="edge">
<title>T1228:f0&#45;&gt;T1249:f1</title>
<path fill="none" stroke="#c000a5" d="M800,-162C800,-132.57 842.86,-141.34 852.91,-120.86"/>
<polygon fill="#c000a5" stroke="#c000a5" points="856.35,-121.51 855,-111 849.5,-120.06 856.35,-121.51"/>
<text text-anchor="middle" x="854.5" y="-132.8" font-family="Times,serif" font-size="14.00" fill="#c000a5">wr</text>
</g>
<!-- T1228&#45;&gt;T1254 -->
<g id="edge10" class="edge">
<title>T1228:f0&#45;&gt;T1254:f2</title>
<path fill="none" stroke="#c02700" d="M764,-177C499.29,-177 440.78,-194.99 489,-273 506.24,-300.9 523.12,-298.29 555,-306 576.19,-311.12 2054.4,-302.06 2190.06,-321.06"/>
<polygon fill="#c02700" stroke="#c02700" points="2189.42,-324.52 2200,-324 2191.4,-317.81 2189.42,-324.52"/>
<text text-anchor="middle" x="501.5" y="-254.3" font-family="Times,serif" font-size="14.00" fill="#c02700">ww</text>
</g>
<!-- T1251 -->
<g id="node5" class="node">
<title>T1251</title>
<polygon fill="none" stroke="#0058ad" points="2768,-0.5 2768,-29.5 3882,-29.5 3882,-0.5 2768,-0.5"/>
<text text-anchor="middle" x="2803" y="-11.3" font-family="Times,serif" font-size="14.00" fill="#0058ad">a 11 31</text>
<polyline fill="none" stroke="#0058ad" points="2838,-0.5 2838,-29.5 "/>
<text text-anchor="middle" x="2996.5" y="-11.3" font-family="Times,serif" font-size="14.00" fill="#0058ad">r 11 [1 2 3 7 11 4 5 17 18 22 34 30 36 31]</text>
<polyline fill="none" stroke="#0058ad" points="3155,-0.5 3155,-29.5 "/>
<text text-anchor="middle" x="3518.5" y="-11.3" font-family="Times,serif" font-size="14.00" fill="#0058ad">r 12 [3 4 5 6 1 12 15 16 14 8 9 23 2 20 30 26 10 11 32 33 34 25 40 41 29 52 55 61 65 72 70 71 78]</text>
</g>
<!-- T1228&#45;&gt;T1251 -->
<g id="edge9" class="edge">
<title>T1228:f0&#45;&gt;T1251:f2</title>
<path fill="none" stroke="#c000a5" d="M800,-162C800,-150.7 1600.74,-111.91 1612,-111 1827.02,-93.57 1882.13,-97.99 2095,-63 2124.26,-58.19 2130.57,-51.55 2160,-48 2177.81,-45.85 3388.78,-48.58 3509.36,-32.66"/>
<polygon fill="#c000a5" stroke="#c000a5" points="3510.29,-36.03 3519,-30 3508.43,-29.28 3510.29,-36.03"/>
<text text-anchor="middle" x="1981.5" y="-92.3" font-family="Times,serif" font-size="14.00" fill="#c000a5">wr</text>
</g>
<!-- T1228&#45;&gt;T1233 -->
<g id="edge12" class="edge">
<title>T1228:f0&#45;&gt;T1233:f0</title>
<path fill="none" stroke="#c000a5" d="M800,-162C800,-143.37 2123.47,-150.28 2141,-144 2169.51,-133.79 2167.78,-103.94 2190.84,-97.32"/>
<polygon fill="#c000a5" stroke="#c000a5" points="2191.53,-100.75 2201,-96 2190.63,-93.81 2191.53,-100.75"/>
<text text-anchor="middle" x="2169.5" y="-132.8" font-family="Times,serif" font-size="14.00" fill="#c000a5">wr</text>
</g>
<!-- T1228&#45;&gt;T1234 -->
<g id="edge8" class="edge">
<title>T1228:f1&#45;&gt;T1234:f0</title>
<path fill="none" stroke="#5b00c0" d="M1336,-192C1336,-291.16 989.96,-218.7 891,-225 874.1,-226.08 613.62,-224.56 561.89,-237.98"/>
<polygon fill="#5b00c0" stroke="#5b00c0" points="559.98,-235.03 553,-243 563.43,-241.13 559.98,-235.03"/>
<text text-anchor="middle" x="1339.5" y="-213.8" font-family="Times,serif" font-size="14.00" fill="#5b00c0">rw</text>
</g>
<!-- T1228&#45;&gt;T1261 -->
<g id="edge7" class="edge">
<title>T1228:f0&#45;&gt;T1261:f1</title>
<path fill="none" stroke="#c000a5" d="M800,-162C800,-150.05 1215.22,-112.98 1227,-111 1390.44,-83.51 1590.6,-194.5 1598.74,-40.05"/>
<polygon fill="#c000a5" stroke="#c000a5" points="1602.24,-40.09 1599,-30 1595.25,-39.91 1602.24,-40.09"/>
<text text-anchor="middle" x="1598.5" y="-92.3" font-family="Times,serif" font-size="14.00" fill="#c000a5">wr</text>
</g>
<!-- T1251&#45;&gt;T1254 -->
<g id="edge13" class="edge">
<title>T1251:f2&#45;&gt;T1254:f2</title>
<path fill="none" stroke="#5b00c0" d="M3519,-30C3519,-49.84 2824.82,-47.21 2805,-48 2734.75,-50.78 2174,-24.69 2174,-95 2174,-259 2174,-259 2174,-259 2174,-286.35 2194.08,-291.8 2198.95,-313.84"/>
<polygon fill="#5b00c0" stroke="#5b00c0" points="2195.49,-314.41 2200,-324 2202.45,-313.69 2195.49,-314.41"/>
<text text-anchor="middle" x="2183.5" y="-173.3" font-family="Times,serif" font-size="14.00" fill="#5b00c0">rw</text>
</g>
<!-- T1233&#45;&gt;T1254 -->
<g id="edge15" class="edge">
<title>T1233:f0&#45;&gt;T1254:f2</title>
<path fill="none" stroke="#5b00c0" d="M2566,-111C2566,-228.95 2491.64,-253.54 2386,-306 2369.8,-314.04 2240.69,-305.98 2207.67,-317.49"/>
<polygon fill="#5b00c0" stroke="#5b00c0" points="2205.36,-314.86 2200,-324 2209.89,-320.19 2205.36,-314.86"/>
<text text-anchor="middle" x="2545.5" y="-213.8" font-family="Times,serif" font-size="14.00" fill="#5b00c0">rw</text>
</g>
<!-- T1233&#45;&gt;T1251 -->
<g id="edge14" class="edge">
<title>T1233:f1&#45;&gt;T1251:f0</title>
<path fill="none" stroke="#c02700" d="M2965,-81C2965,-9.35 2819.04,-95.78 2804.21,-40.19"/>
<polygon fill="#c02700" stroke="#c02700" points="2807.66,-39.52 2803,-30 2800.7,-40.34 2807.66,-39.52"/>
<text text-anchor="middle" x="2970.5" y="-51.8" font-family="Times,serif" font-size="14.00" fill="#c02700">ww</text>
</g>
<!-- T1234&#45;&gt;T1249 -->
<g id="edge16" class="edge">
<title>T1234:f3&#45;&gt;T1249:f0</title>
<path fill="none" stroke="#c02700" d="M2023,-243C2023,-156.49 1930.18,-181.97 1846,-162 1841.55,-160.94 596.74,-120.28 470.32,-112.03"/>
<polygon fill="#c02700" stroke="#c02700" points="470.3,-108.51 460,-111 469.6,-115.48 470.3,-108.51"/>
<text text-anchor="middle" x="2012.5" y="-173.3" font-family="Times,serif" font-size="14.00" fill="#c02700">ww</text>
</g>
<!-- T1234&#45;&gt;T1228 -->
<g id="edge17" class="edge">
<title>T1234:f1&#45;&gt;T1228:f0</title>
<path fill="none" stroke="#5b00c0" d="M936,-243C936,-211.74 897.31,-235.88 868,-225 840.2,-214.68 808.49,-223.04 801.44,-202.03"/>
<polygon fill="#5b00c0" stroke="#5b00c0" points="804.88,-201.4 800,-192 797.95,-202.4 804.88,-201.4"/>
<text text-anchor="middle" x="877.5" y="-213.8" font-family="Times,serif" font-size="14.00" fill="#5b00c0">rw</text>
</g>
<!-- T1261&#45;&gt;T1254 -->
<g id="edge18" class="edge">
<title>T1261:f1&#45;&gt;T1254:f2</title>
<path fill="none" stroke="#5b00c0" d="M1599,-30C1599,-84.04 2081,-40.96 2081,-95 2081,-259 2081,-259 2081,-259 2081,-299.86 2123.76,-287.14 2160,-306 2172.97,-312.75 2188.99,-308.53 2196.18,-314.23"/>
<polygon fill="#5b00c0" stroke="#5b00c0" points="2193.1,-315.96 2200,-324 2199.62,-313.41 2193.1,-315.96"/>
<text text-anchor="middle" x="2090.5" y="-173.3" font-family="Times,serif" font-size="14.00" fill="#5b00c0">rw</text>
</g>
</g>
</svg>
