<?xml version="1.0" encoding="UTF-8" standalone="no"?>
<!DOCTYPE svg PUBLIC "-//W3C//DTD SVG 1.1//EN"
 "http://www.w3.org/Graphics/SVG/1.1/DTD/svg11.dtd">
<!-- Generated by graphviz version 2.43.0 (0)
 -->
<!-- Title: a_graph Pages: 1 -->
<svg width="1126pt" height="119pt"
 viewBox="0.00 0.00 1126.00 119.00" xmlns="http://www.w3.org/2000/svg" xmlns:xlink="http://www.w3.org/1999/xlink">
<g id="graph0" class="graph" transform="scale(1 1) rotate(0) translate(4 115)">
<title>a_graph</title>
<polygon fill="white" stroke="transparent" points="-4,4 -4,-115 1122,-115 1122,4 -4,4"/>
<!-- T1119 -->
<g id="node1" class="node">
<title>T1119</title>
<polygon fill="none" stroke="#0058ad" points="0,-81.5 0,-110.5 1118,-110.5 1118,-81.5 0,-81.5"/>
<text text-anchor="middle" x="262" y="-92.3" font-family="Times,serif" font-size="14.00" fill="#0058ad">r 12 [3 4 5 6 1 12 15 16 14 8 9 23 2 20 30 26 10 11 32 33 34 25 40 41]</text>
<polyline fill="none" stroke="#0058ad" points="524,-81.5 524,-110.5 "/>
<text text-anchor="middle" x="559" y="-92.3" font-family="Times,serif" font-size="14.00" fill="#0058ad">a 11 18</text>
<polyline fill="none" stroke="#0058ad" points="594,-81.5 594,-110.5 "/>
<text text-anchor="middle" x="856" y="-92.3" font-family="Times,serif" font-size="14.00" fill="#0058ad">r 12 [3 4 5 6 1 12 15 16 14 8 9 23 2 20 30 26 10 11 32 33 34 25 40 41]</text>
</g>
<!-- T1108 -->
<g id="node2" class="node">
<title>T1108</title>
<polygon fill="none" stroke="#0058ad" points="193.5,-0.5 193.5,-29.5 992.5,-29.5 992.5,-0.5 193.5,-0.5"/>
<text text-anchor="middle" x="284.5" y="-11.3" font-family="Times,serif" font-size="14.00" fill="#0058ad">r 11 [1 2 3 7 11 4 5 17]</text>
<polyline fill="none" stroke="#0058ad" points="375.5,-0.5 375.5,-29.5 "/>
<text text-anchor="middle" x="410.5" y="-11.3" font-family="Times,serif" font-size="14.00" fill="#0058ad">a 12 29</text>
<polyline fill="none" stroke="#0058ad" points="445.5,-0.5 445.5,-29.5 "/>
<text text-anchor="middle" x="719" y="-11.3" font-family="Times,serif" font-size="14.00" fill="#0058ad">r 12 [3 4 5 6 1 12 15 16 14 8 9 23 2 20 30 26 10 11 32 33 34 25 40 41 29]</text>
</g>
<!-- T1119&#45;&gt;T1108 -->
<g id="edge1" class="edge">
<title>T1119:f0&#45;&gt;T1108:f1</title>
<path fill="none" stroke="#5b00c0" d="M262,-81C262,-49.75 381.46,-61.56 405.73,-39.06"/>
<polygon fill="#5b00c0" stroke="#5b00c0" points="408.9,-40.54 410,-30 402.57,-37.55 408.9,-40.54"/>
<text text-anchor="middle" x="395.5" y="-51.8" font-family="Times,serif" font-size="14.00" fill="#5b00c0">rw</text>
</g>
<!-- T1108&#45;&gt;T1119 -->
<g id="edge2" class="edge">
<title>T1108:f0&#45;&gt;T1119:f1</title>
<path fill="none" stroke="#5b00c0" d="M284,-30C284,-58.06 381.39,-42.98 409,-48 472.49,-59.54 549.99,-17.75 558.27,-70.81"/>
<polygon fill="#5b00c0" stroke="#5b00c0" points="554.8,-71.27 559,-81 561.78,-70.78 554.8,-71.27"/>
<text text-anchor="middle" x="564.5" y="-51.8" font-family="Times,serif" font-size="14.00" fill="#5b00c0">rw</text>
</g>
</g>
</svg>
