<?xml version="1.0" encoding="UTF-8" standalone="no"?>
<!DOCTYPE svg PUBLIC "-//W3C//DTD SVG 1.1//EN"
 "http://www.w3.org/Graphics/SVG/1.1/DTD/svg11.dtd">
<!-- Generated by graphviz version 2.43.0 (0)
 -->
<!-- Title: a_graph Pages: 1 -->
<svg width="2622pt" height="362pt"
 viewBox="0.00 0.00 2621.50 362.00" xmlns="http://www.w3.org/2000/svg" xmlns:xlink="http://www.w3.org/1999/xlink">
<g id="graph0" class="graph" transform="scale(1 1) rotate(0) translate(4 358)">
<title>a_graph</title>
<polygon fill="white" stroke="transparent" points="-4,4 -4,-358 2617.5,-358 2617.5,4 -4,4"/>
<!-- T1752 -->
<g id="node1" class="node">
<title>T1752</title>
<polygon fill="none" stroke="#0058ad" points="981.5,-324.5 981.5,-353.5 2064.5,-353.5 2064.5,-324.5 981.5,-324.5"/>
<text text-anchor="middle" x="1016.5" y="-335.3" font-family="Times,serif" font-size="14.00" fill="#0058ad">a 13 66</text>
<polyline fill="none" stroke="#0058ad" points="1051.5,-324.5 1051.5,-353.5 "/>
<text text-anchor="middle" x="1086.5" y="-335.3" font-family="Times,serif" font-size="14.00" fill="#0058ad">a 13 67</text>
<polyline fill="none" stroke="#0058ad" points="1121.5,-324.5 1121.5,-353.5 "/>
<text text-anchor="middle" x="1593" y="-335.3" font-family="Times,serif" font-size="14.00" fill="#0058ad">r 13 [3 4 5 6 8 7 12 16 9 1 19 20 21 24 2 32 33 13 14 15 17 18 37 31 43 44 45 35 36 58 59 55 56 70 77 62 81 82 83 84 71 66 67]</text>
</g>
<!-- T1749 -->
<g id="node4" class="node">
<title>T1749</title>
<polygon fill="none" stroke="#0058ad" points="94.5,-243.5 94.5,-272.5 2601.5,-272.5 2601.5,-243.5 94.5,-243.5"/>
<text text-anchor="middle" x="876.5" y="-254.3" font-family="Times,serif" font-size="14.00" fill="#0058ad">r 7 [1 2 6 4 10 12 14 13 15 17 19 22 24 26 27 30 28 31 33 34 35 36 38 40 41 42 44 46 48 49 50 51 47 52 53 54 55 58 56 59 61 60 62 68 69 70 71 66 73 72 74 77 79 76 78 75 80 82 83 84 86 85 89 92 91 93 94 95 97]</text>
<polyline fill="none" stroke="#0058ad" points="1658.5,-243.5 1658.5,-272.5 "/>
<text text-anchor="middle" x="2130" y="-254.3" font-family="Times,serif" font-size="14.00" fill="#0058ad">r 13 [3 4 5 6 8 7 12 16 9 1 19 20 21 24 2 32 33 13 14 15 17 18 37 31 43 44 45 35 36 58 59 55 56 70 77 62 81 82 83 84 71 66 67]</text>
</g>
<!-- T1752&#45;&gt;T1749 -->
<g id="edge1" class="edge">
<title>T1752:f1&#45;&gt;T1749:f1</title>
<path fill="none" stroke="#c000a5" d="M1086,-324C1086,-95.24 2098.63,-492.9 2129.29,-283.11"/>
<polygon fill="#c000a5" stroke="#c000a5" points="2132.79,-283.22 2130,-273 2125.81,-282.73 2132.79,-283.22"/>
<text text-anchor="middle" x="2134.5" y="-294.8" font-family="Times,serif" font-size="14.00" fill="#c000a5">wr</text>
</g>
<!-- T1753 -->
<g id="node2" class="node">
<title>T1753</title>
<polygon fill="none" stroke="#0058ad" points="62.5,-162.5 62.5,-191.5 2613.5,-191.5 2613.5,-162.5 62.5,-162.5"/>
<text text-anchor="middle" x="477.5" y="-173.3" font-family="Times,serif" font-size="14.00" fill="#0058ad">r 13 [3 4 5 6 8 7 12 16 9 1 19 20 21 24 2 32 33 13 14 15 17 18 37 31 43 44 45 35 36 58 59 55 56 70 77 62 81 82]</text>
<polyline fill="none" stroke="#0058ad" points="892.5,-162.5 892.5,-191.5 "/>
<text text-anchor="middle" x="923" y="-173.3" font-family="Times,serif" font-size="14.00" fill="#0058ad">a 7 98</text>
<polyline fill="none" stroke="#0058ad" points="953.5,-162.5 953.5,-191.5 "/>
<text text-anchor="middle" x="1368.5" y="-173.3" font-family="Times,serif" font-size="14.00" fill="#0058ad">r 13 [3 4 5 6 8 7 12 16 9 1 19 20 21 24 2 32 33 13 14 15 17 18 37 31 43 44 45 35 36 58 59 55 56 70 77 62 81 82]</text>
<polyline fill="none" stroke="#0058ad" points="1783.5,-162.5 1783.5,-191.5 "/>
<text text-anchor="middle" x="2198.5" y="-173.3" font-family="Times,serif" font-size="14.00" fill="#0058ad">r 13 [3 4 5 6 8 7 12 16 9 1 19 20 21 24 2 32 33 13 14 15 17 18 37 31 43 44 45 35 36 58 59 55 56 70 77 62 81 82]</text>
</g>
<!-- T1739 -->
<g id="node3" class="node">
<title>T1739</title>
<polygon fill="none" stroke="#0058ad" points="244.5,-81.5 244.5,-110.5 1237.5,-110.5 1237.5,-81.5 244.5,-81.5"/>
<text text-anchor="middle" x="279.5" y="-92.3" font-family="Times,serif" font-size="14.00" fill="#0058ad">a 13 83</text>
<polyline fill="none" stroke="#0058ad" points="314.5,-81.5 314.5,-110.5 "/>
<text text-anchor="middle" x="741" y="-92.3" font-family="Times,serif" font-size="14.00" fill="#0058ad">r 13 [3 4 5 6 8 7 12 16 9 1 19 20 21 24 2 32 33 13 14 15 17 18 37 31 43 44 45 35 36 58 59 55 56 70 77 62 81 82 83]</text>
<polyline fill="none" stroke="#0058ad" points="1167.5,-81.5 1167.5,-110.5 "/>
<text text-anchor="middle" x="1202.5" y="-92.3" font-family="Times,serif" font-size="14.00" fill="#0058ad">a 13 84</text>
</g>
<!-- T1753&#45;&gt;T1739 -->
<g id="edge2" class="edge">
<title>T1753:f0&#45;&gt;T1739:f0</title>
<path fill="none" stroke="#5b00c0" d="M477,-162C477,-74.85 294.91,-191.52 279.97,-121.09"/>
<polygon fill="#5b00c0" stroke="#5b00c0" points="283.44,-120.62 279,-111 276.47,-121.29 283.44,-120.62"/>
<text text-anchor="middle" x="480.5" y="-132.8" font-family="Times,serif" font-size="14.00" fill="#5b00c0">rw</text>
</g>
<!-- T1741 -->
<g id="node5" class="node">
<title>T1741</title>
<polygon fill="none" stroke="#0058ad" points="0,-0.5 0,-29.5 70,-29.5 70,-0.5 0,-0.5"/>
<text text-anchor="middle" x="35" y="-11.3" font-family="Times,serif" font-size="14.00" fill="#0058ad">a 13 71</text>
</g>
<!-- T1739&#45;&gt;T1741 -->
<g id="edge3" class="edge">
<title>T1739:f2&#45;&gt;T1741:f0</title>
<path fill="none" stroke="#c02700" d="M1203,-81C1203,-20.15 203.42,-42.38 78.01,-30.88"/>
<polygon fill="#c02700" stroke="#c02700" points="78.44,-27.4 68.06,-29.52 77.5,-34.34 78.44,-27.4"/>
<text text-anchor="middle" x="1172.5" y="-51.8" font-family="Times,serif" font-size="14.00" fill="#c02700">ww</text>
</g>
<!-- T1749&#45;&gt;T1753 -->
<g id="edge4" class="edge">
<title>T1749:f0&#45;&gt;T1753:f1</title>
<path fill="none" stroke="#5b00c0" d="M876,-243C876,-216.27 911.34,-220.73 920.73,-202.28"/>
<polygon fill="#5b00c0" stroke="#5b00c0" points="924.26,-202.52 923,-192 917.43,-201.01 924.26,-202.52"/>
<text text-anchor="middle" x="921.5" y="-213.8" font-family="Times,serif" font-size="14.00" fill="#5b00c0">rw</text>
</g>
<!-- T1741&#45;&gt;T1752 -->
<g id="edge5" class="edge">
<title>T1741:f0&#45;&gt;T1752:f0</title>
<path fill="none" stroke="#c02700" d="M30.29,-29.57C25.57,-45.47 19,-71.77 19,-95 19,-259 19,-259 19,-259 19,-310.48 856.92,-336.89 969.92,-338.88"/>
<polygon fill="#c02700" stroke="#c02700" points="969.96,-342.38 980,-339 970.04,-335.38 969.96,-342.38"/>
<text text-anchor="middle" x="31.5" y="-173.3" font-family="Times,serif" font-size="14.00" fill="#c02700">ww</text>
</g>
</g>
</svg>
