<?xml version="1.0" encoding="UTF-8" standalone="no"?>
<!DOCTYPE svg PUBLIC "-//W3C//DTD SVG 1.1//EN"
 "http://www.w3.org/Graphics/SVG/1.1/DTD/svg11.dtd">
<!-- Generated by graphviz version 2.43.0 (0)
 -->
<!-- Title: a_graph Pages: 1 -->
<svg width="1750pt" height="119pt"
 viewBox="0.00 0.00 1750.00 119.00" xmlns="http://www.w3.org/2000/svg" xmlns:xlink="http://www.w3.org/1999/xlink">
<g id="graph0" class="graph" transform="scale(1 1) rotate(0) translate(4 115)">
<title>a_graph</title>
<polygon fill="white" stroke="transparent" points="-4,4 -4,-115 1746,-115 1746,4 -4,4"/>
<!-- T1984 -->
<g id="node1" class="node">
<title>T1984</title>
<polygon fill="none" stroke="#0058ad" points="0,-81.5 0,-110.5 1742,-110.5 1742,-81.5 0,-81.5"/>
<text text-anchor="middle" x="30.5" y="-92.3" font-family="Times,serif" font-size="14.00" fill="#0058ad">a 14 6</text>
<polyline fill="none" stroke="#0058ad" points="61,-81.5 61,-110.5 "/>
<text text-anchor="middle" x="901.5" y="-92.3" font-family="Times,serif" font-size="14.00" fill="#0058ad">r 11 [1 2 3 7 11 4 5 17 18 22 34 30 36 31 44 39 45 46 43 48 42 47 51 52 50 53 55 56 60 58 61 62 59 66 67 71 65 69 70 75 78 80 81 83 85 86 84 90 87 95 89 92 93 97 103 102 104 105 100 101 98 106 107 116 117 118 109 110 122]</text>
</g>
<!-- T1980 -->
<g id="node2" class="node">
<title>T1980</title>
<polygon fill="none" stroke="#0058ad" points="162,-0.5 162,-29.5 514,-29.5 514,-0.5 162,-0.5"/>
<text text-anchor="middle" x="201.5" y="-11.3" font-family="Times,serif" font-size="14.00" fill="#0058ad">a 11 115</text>
<polyline fill="none" stroke="#0058ad" points="241,-0.5 241,-29.5 "/>
<text text-anchor="middle" x="316.5" y="-11.3" font-family="Times,serif" font-size="14.00" fill="#0058ad">r 14 [2 5 7 8 3 4 1]</text>
<polyline fill="none" stroke="#0058ad" points="392,-0.5 392,-29.5 "/>
<text text-anchor="middle" x="422.5" y="-11.3" font-family="Times,serif" font-size="14.00" fill="#0058ad">a 6 67</text>
<polyline fill="none" stroke="#0058ad" points="453,-0.5 453,-29.5 "/>
<text text-anchor="middle" x="483.5" y="-11.3" font-family="Times,serif" font-size="14.00" fill="#0058ad">a 6 68</text>
</g>
<!-- T1984&#45;&gt;T1980 -->
<g id="edge1" class="edge">
<title>T1984:f1&#45;&gt;T1980:f0</title>
<path fill="none" stroke="#5b00c0" d="M902,-81C902,-44.39 285.89,-65.92 208.87,-36.58"/>
<polygon fill="#5b00c0" stroke="#5b00c0" points="210.92,-33.73 201,-30 206.43,-39.1 210.92,-33.73"/>
<text text-anchor="middle" x="809.5" y="-51.8" font-family="Times,serif" font-size="14.00" fill="#5b00c0">rw</text>
</g>
<!-- T1980&#45;&gt;T1984 -->
<g id="edge2" class="edge">
<title>T1980:f1&#45;&gt;T1984:f0</title>
<path fill="none" stroke="#5b00c0" d="M316,-30C316,-59.38 79.08,-50.79 36.51,-73.34"/>
<polygon fill="#5b00c0" stroke="#5b00c0" points="33.81,-71.11 30,-81 39.14,-75.65 33.81,-71.11"/>
<text text-anchor="middle" x="270.5" y="-51.8" font-family="Times,serif" font-size="14.00" fill="#5b00c0">rw</text>
</g>
</g>
</svg>
