<?xml version="1.0" encoding="UTF-8" standalone="no"?>
<!DOCTYPE svg PUBLIC "-//W3C//DTD SVG 1.1//EN"
 "http://www.w3.org/Graphics/SVG/1.1/DTD/svg11.dtd">
<!-- Generated by graphviz version 2.43.0 (0)
 -->
<!-- Title: a_graph Pages: 1 -->
<svg width="3244pt" height="281pt"
 viewBox="0.00 0.00 3244.00 281.00" xmlns="http://www.w3.org/2000/svg" xmlns:xlink="http://www.w3.org/1999/xlink">
<g id="graph0" class="graph" transform="scale(1 1) rotate(0) translate(4 277)">
<title>a_graph</title>
<polygon fill="white" stroke="transparent" points="-4,4 -4,-277 3240,-277 3240,4 -4,4"/>
<!-- T2016 -->
<g id="node1" class="node">
<title>T2016</title>
<polygon fill="none" stroke="#0058ad" points="0,-243.5 0,-272.5 3236,-272.5 3236,-243.5 0,-243.5"/>
<text text-anchor="middle" x="966.5" y="-254.3" font-family="Times,serif" font-size="14.00" fill="#0058ad">r 7 [1 2 6 4 10 12 14 13 15 17 19 22 24 26 27 30 28 31 33 34 35 36 38 40 41 42 44 46 48 49 50 51 47 52 53 54 55 58 56 59 61 60 62 68 69 70 71 66 73 72 74 77 79 76 78 75 80 82 83 84 86 85 89 92 91 93 94 95 97 98 103 105 100 108 109 110 112 111 107 115 116]</text>
<polyline fill="none" stroke="#0058ad" points="1933,-243.5 1933,-272.5 "/>
<text text-anchor="middle" x="2071.5" y="-254.3" font-family="Times,serif" font-size="14.00" fill="#0058ad">r 14 [2 5 7 8 3 4 1 6 17 18 19 20 21]</text>
<polyline fill="none" stroke="#0058ad" points="2210,-243.5 2210,-272.5 "/>
<text text-anchor="middle" x="2692.5" y="-254.3" font-family="Times,serif" font-size="14.00" fill="#0058ad">r 6 [2 7 8 10 11 13 14 15 16 22 25 26 28 32 33 30 35 36 37 39 40 43 44 45 46 48 50 49 52 53 56 58 57 59 60 63 64 61 65 66 67 68]</text>
<polyline fill="none" stroke="#0058ad" points="3175,-243.5 3175,-272.5 "/>
<text text-anchor="middle" x="3205.5" y="-254.3" font-family="Times,serif" font-size="14.00" fill="#0058ad">r 15 []</text>
</g>
<!-- T2018 -->
<g id="node3" class="node">
<title>T2018</title>
<polygon fill="none" stroke="#0058ad" points="1074.5,-162.5 1074.5,-191.5 3045.5,-191.5 3045.5,-162.5 1074.5,-162.5"/>
<text text-anchor="middle" x="1109.5" y="-173.3" font-family="Times,serif" font-size="14.00" fill="#0058ad">a 14 23</text>
<polyline fill="none" stroke="#0058ad" points="1144.5,-162.5 1144.5,-191.5 "/>
<text text-anchor="middle" x="2095" y="-173.3" font-family="Times,serif" font-size="14.00" fill="#0058ad">r 7 [1 2 6 4 10 12 14 13 15 17 19 22 24 26 27 30 28 31 33 34 35 36 38 40 41 42 44 46 48 49 50 51 47 52 53 54 55 58 56 59 61 60 62 68 69 70 71 66 73 72 74 77 79 76 78 75 80 82 83 84 86 85 89 92 91 93 94 95 97 98 103 105 100 108 109 110 112 111 107 115]</text>
</g>
<!-- T2016&#45;&gt;T2018 -->
<g id="edge2" class="edge">
<title>T2016:f1&#45;&gt;T2018:f0</title>
<path fill="none" stroke="#5b00c0" d="M2072,-243C2072,-32.26 1140.71,-393.93 1109.79,-202.19"/>
<polygon fill="#5b00c0" stroke="#5b00c0" points="1113.26,-201.7 1109,-192 1106.28,-202.24 1113.26,-201.7"/>
<text text-anchor="middle" x="2076.5" y="-213.8" font-family="Times,serif" font-size="14.00" fill="#5b00c0">rw</text>
</g>
<!-- T2020 -->
<g id="node4" class="node">
<title>T2020</title>
<polygon fill="none" stroke="#0058ad" points="821.5,-0.5 821.5,-29.5 1168.5,-29.5 1168.5,-0.5 821.5,-0.5"/>
<text text-anchor="middle" x="960" y="-11.3" font-family="Times,serif" font-size="14.00" fill="#0058ad">r 14 [2 5 7 8 3 4 1 6 17 18 19 20 21]</text>
<polyline fill="none" stroke="#0058ad" points="1098.5,-0.5 1098.5,-29.5 "/>
<text text-anchor="middle" x="1133.5" y="-11.3" font-family="Times,serif" font-size="14.00" fill="#0058ad">a 7 114</text>
</g>
<!-- T2016&#45;&gt;T2020 -->
<g id="edge1" class="edge">
<title>T2016:f0&#45;&gt;T2020:f1</title>
<path fill="none" stroke="#5b00c0" d="M966,-243C966,-170.01 946.29,-137.09 993,-81 1011.99,-58.2 1109,-61.99 1129.99,-39.55"/>
<polygon fill="#5b00c0" stroke="#5b00c0" points="1133.36,-40.58 1134,-30 1126.9,-37.87 1133.36,-40.58"/>
<text text-anchor="middle" x="975.5" y="-132.8" font-family="Times,serif" font-size="14.00" fill="#5b00c0">rw</text>
</g>
<!-- T2012 -->
<g id="node2" class="node">
<title>T2012</title>
<polygon fill="none" stroke="#0058ad" points="1099.5,-81.5 1099.5,-110.5 2388.5,-110.5 2388.5,-81.5 1099.5,-81.5"/>
<text text-anchor="middle" x="1134.5" y="-92.3" font-family="Times,serif" font-size="14.00" fill="#0058ad">a 7 116</text>
<polyline fill="none" stroke="#0058ad" points="1169.5,-81.5 1169.5,-110.5 "/>
<text text-anchor="middle" x="1296.5" y="-92.3" font-family="Times,serif" font-size="14.00" fill="#0058ad">r 4 [2 4 6 5 7 8 9 10 13 14 15 16]</text>
<polyline fill="none" stroke="#0058ad" points="1423.5,-81.5 1423.5,-110.5 "/>
<text text-anchor="middle" x="1906" y="-92.3" font-family="Times,serif" font-size="14.00" fill="#0058ad">r 6 [2 7 8 10 11 13 14 15 16 22 25 26 28 32 33 30 35 36 37 39 40 43 44 45 46 48 50 49 52 53 56 58 57 59 60 63 64 61 65 66 67 68]</text>
</g>
<!-- T2012&#45;&gt;T2016 -->
<g id="edge3" class="edge">
<title>T2012:f0&#45;&gt;T2016:f0</title>
<path fill="none" stroke="#c000a5" d="M1098,-96C1095.62,-96 998.1,-204.48 972.24,-235.09"/>
<polygon fill="#c000a5" stroke="#c000a5" points="969.44,-232.98 966,-243 974.94,-237.32 969.44,-232.98"/>
<text text-anchor="middle" x="1045.5" y="-173.3" font-family="Times,serif" font-size="14.00" fill="#c000a5">wr</text>
</g>
<!-- T2012&#45;&gt;T2020 -->
<g id="edge4" class="edge">
<title>T2012:f0&#45;&gt;T2020:f1</title>
<path fill="none" stroke="#c02700" d="M1134,-81C1134,-62.23 1134,-55.12 1134,-40.35"/>
<polygon fill="#c02700" stroke="#c02700" points="1137.5,-40 1134,-30 1130.5,-40 1137.5,-40"/>
<text text-anchor="middle" x="1146.5" y="-51.8" font-family="Times,serif" font-size="14.00" fill="#c02700">ww</text>
</g>
<!-- T2018&#45;&gt;T2012 -->
<g id="edge5" class="edge">
<title>T2018:f1&#45;&gt;T2012:f0</title>
<path fill="none" stroke="#5b00c0" d="M2095,-162C2095,48.31 1165.64,-312.51 1134.79,-121.17"/>
<polygon fill="#5b00c0" stroke="#5b00c0" points="1138.26,-120.7 1134,-111 1131.28,-121.24 1138.26,-120.7"/>
<text text-anchor="middle" x="2099.5" y="-132.8" font-family="Times,serif" font-size="14.00" fill="#5b00c0">rw</text>
</g>
<!-- T2020&#45;&gt;T2018 -->
<g id="edge6" class="edge">
<title>T2020:f0&#45;&gt;T2018:f0</title>
<path fill="none" stroke="#5b00c0" d="M960,-30C960,-34.45 1040.38,-140.77 1065.67,-169.76"/>
<polygon fill="#5b00c0" stroke="#5b00c0" points="1063.43,-172.46 1073,-177 1068.34,-167.48 1063.43,-172.46"/>
<text text-anchor="middle" x="1028.5" y="-92.3" font-family="Times,serif" font-size="14.00" fill="#5b00c0">rw</text>
</g>
</g>
</svg>
