<?xml version="1.0" encoding="UTF-8" standalone="no"?>
<!DOCTYPE svg PUBLIC "-//W3C//DTD SVG 1.1//EN"
 "http://www.w3.org/Graphics/SVG/1.1/DTD/svg11.dtd">
<!-- Generated by graphviz version 2.43.0 (0)
 -->
<!-- Title: a_graph Pages: 1 -->
<svg width="1881pt" height="281pt"
 viewBox="0.00 0.00 1881.00 281.00" xmlns="http://www.w3.org/2000/svg" xmlns:xlink="http://www.w3.org/1999/xlink">
<g id="graph0" class="graph" transform="scale(1 1) rotate(0) translate(4 277)">
<title>a_graph</title>
<polygon fill="white" stroke="transparent" points="-4,4 -4,-277 1877,-277 1877,4 -4,4"/>
<!-- T1324 -->
<g id="node1" class="node">
<title>T1324</title>
<polygon fill="none" stroke="#ac6e00" points="0,-243.5 0,-272.5 206,-272.5 206,-243.5 0,-243.5"/>
<text text-anchor="middle" x="34" y="-254.3" font-family="Times,serif" font-size="14.00" fill="#ac6e00">r 12 nil</text>
<polyline fill="none" stroke="#ac6e00" points="68,-243.5 68,-272.5 "/>
<text text-anchor="middle" x="103" y="-254.3" font-family="Times,serif" font-size="14.00" fill="#ac6e00">a 12 83</text>
<polyline fill="none" stroke="#ac6e00" points="138,-243.5 138,-272.5 "/>
<text text-anchor="middle" x="172" y="-254.3" font-family="Times,serif" font-size="14.00" fill="#ac6e00">r 12 nil</text>
</g>
<!-- T1331 -->
<g id="node3" class="node">
<title>T1331</title>
<polygon fill="none" stroke="#0058ad" points="409,-162.5 409,-191.5 1593,-191.5 1593,-162.5 409,-162.5"/>
<text text-anchor="middle" x="966" y="-173.3" font-family="Times,serif" font-size="14.00" fill="#0058ad">r 7 [1 2 6 4 10 12 14 13 15 17 19 22 24 26 27 30 28 31 33 34 35 36 38 40 41 42 44 46 48 49 50 51 47 52 53 54 55 58 56 59 61 60 62 68 69 70 71 66 73]</text>
<polyline fill="none" stroke="#0058ad" points="1523,-162.5 1523,-191.5 "/>
<text text-anchor="middle" x="1558" y="-173.3" font-family="Times,serif" font-size="14.00" fill="#0058ad">a 12 96</text>
</g>
<!-- T1324&#45;&gt;T1331 -->
<g id="edge1" class="edge">
<title>T1324:f1&#45;&gt;T1331:f1</title>
<path fill="none" stroke="#c02700" d="M103,-243C103,-84.71 1496.15,-342.26 1556.01,-201.83"/>
<polygon fill="#c02700" stroke="#c02700" points="1559.45,-202.49 1558,-192 1552.59,-201.11 1559.45,-202.49"/>
<text text-anchor="middle" x="1554.5" y="-213.8" font-family="Times,serif" font-size="14.00" fill="#c02700">ww</text>
</g>
<!-- T1337 -->
<g id="node2" class="node">
<title>T1337</title>
<polygon fill="none" stroke="#0058ad" points="172.5,-0.5 172.5,-29.5 1095.5,-29.5 1095.5,-0.5 172.5,-0.5"/>
<text text-anchor="middle" x="603.5" y="-11.3" font-family="Times,serif" font-size="14.00" fill="#0058ad">r 12 [3 4 5 6 1 12 15 16 14 8 9 23 2 20 30 26 10 11 32 33 34 25 40 41 29 52 55 61 65 72 70 71 78 77 82 80 64 92 93]</text>
<polyline fill="none" stroke="#0058ad" points="1034.5,-0.5 1034.5,-29.5 "/>
<text text-anchor="middle" x="1065" y="-11.3" font-family="Times,serif" font-size="14.00" fill="#0058ad">a 6 48</text>
</g>
<!-- T1337&#45;&gt;T1324 -->
<g id="edge2" class="edge">
<title>T1337:f0&#45;&gt;T1324:f1</title>
<path fill="none" stroke="#5b00c0" d="M171,-15C68.66,-15 100.72,-129.5 102.89,-232.73"/>
<polygon fill="#5b00c0" stroke="#5b00c0" points="99.39,-233.04 103,-243 106.39,-232.96 99.39,-233.04"/>
<text text-anchor="middle" x="107.5" y="-132.8" font-family="Times,serif" font-size="14.00" fill="#5b00c0">rw</text>
</g>
<!-- T1334 -->
<g id="node4" class="node">
<title>T1334</title>
<polygon fill="none" stroke="#0058ad" points="115,-81.5 115,-110.5 1873,-110.5 1873,-81.5 115,-81.5"/>
<text text-anchor="middle" x="672" y="-92.3" font-family="Times,serif" font-size="14.00" fill="#0058ad">r 7 [1 2 6 4 10 12 14 13 15 17 19 22 24 26 27 30 28 31 33 34 35 36 38 40 41 42 44 46 48 49 50 51 47 52 53 54 55 58 56 59 61 60 62 68 69 70 71 66 73]</text>
<polyline fill="none" stroke="#0058ad" points="1229,-81.5 1229,-110.5 "/>
<text text-anchor="middle" x="1259.5" y="-92.3" font-family="Times,serif" font-size="14.00" fill="#0058ad">a 7 72</text>
<polyline fill="none" stroke="#0058ad" points="1290,-81.5 1290,-110.5 "/>
<text text-anchor="middle" x="1581.5" y="-92.3" font-family="Times,serif" font-size="14.00" fill="#0058ad">r 6 [2 7 8 10 11 13 14 15 16 22 25 26 28 32 33 30 35 36 37 39 40 43 44 45 46]</text>
</g>
<!-- T1331&#45;&gt;T1334 -->
<g id="edge3" class="edge">
<title>T1331:f0&#45;&gt;T1334:f1</title>
<path fill="none" stroke="#5b00c0" d="M966,-162C966,-33.01 1244.14,-232.16 1259.35,-121.12"/>
<polygon fill="#5b00c0" stroke="#5b00c0" points="1262.85,-121.2 1260,-111 1255.87,-120.76 1262.85,-121.2"/>
<text text-anchor="middle" x="1265.5" y="-132.8" font-family="Times,serif" font-size="14.00" fill="#5b00c0">rw</text>
</g>
<!-- T1334&#45;&gt;T1337 -->
<g id="edge4" class="edge">
<title>T1334:f2&#45;&gt;T1337:f1</title>
<path fill="none" stroke="#5b00c0" d="M1582,-81C1582,-29.16 1190.81,-16.18 1107.04,-15.08"/>
<polygon fill="#5b00c0" stroke="#5b00c0" points="1107.03,-11.58 1097,-15 1106.97,-18.58 1107.03,-11.58"/>
<text text-anchor="middle" x="1567.5" y="-51.8" font-family="Times,serif" font-size="14.00" fill="#5b00c0">rw</text>
</g>
</g>
</svg>
