<?xml version="1.0" encoding="UTF-8" standalone="no"?>
<!DOCTYPE svg PUBLIC "-//W3C//DTD SVG 1.1//EN"
 "http://www.w3.org/Graphics/SVG/1.1/DTD/svg11.dtd">
<!-- Generated by graphviz version 2.43.0 (0)
 -->
<!-- Title: a_graph Pages: 1 -->
<svg width="2874pt" height="200pt"
 viewBox="0.00 0.00 2874.00 200.00" xmlns="http://www.w3.org/2000/svg" xmlns:xlink="http://www.w3.org/1999/xlink">
<g id="graph0" class="graph" transform="scale(1 1) rotate(0) translate(4 196)">
<title>a_graph</title>
<polygon fill="white" stroke="transparent" points="-4,4 -4,-196 2870,-196 2870,4 -4,4"/>
<!-- T644 -->
<g id="node1" class="node">
<title>T644</title>
<polygon fill="none" stroke="#0058ad" points="0,-162.5 0,-191.5 2866,-191.5 2866,-162.5 0,-162.5"/>
<text text-anchor="middle" x="30.5" y="-173.3" font-family="Times,serif" font-size="14.00" fill="#0058ad">a 6 22</text>
<polyline fill="none" stroke="#0058ad" points="61,-162.5 61,-191.5 "/>
<text text-anchor="middle" x="485" y="-173.3" font-family="Times,serif" font-size="14.00" fill="#0058ad">r 10 [1 4 6 7 8 10 11 14 15 16 17 20 21 22 27 30 2 3 26 34 31 35 36 38 41 42 43 46 47 49 52 53 58 61 59 60 54 55]</text>
<polyline fill="none" stroke="#0058ad" points="909,-162.5 909,-191.5 "/>
<text text-anchor="middle" x="1333" y="-173.3" font-family="Times,serif" font-size="14.00" fill="#0058ad">r 10 [1 4 6 7 8 10 11 14 15 16 17 20 21 22 27 30 2 3 26 34 31 35 36 38 41 42 43 46 47 49 52 53 58 61 59 60 54 55]</text>
<polyline fill="none" stroke="#0058ad" points="1757,-162.5 1757,-191.5 "/>
<text text-anchor="middle" x="2311.5" y="-173.3" font-family="Times,serif" font-size="14.00" fill="#0058ad">r 8 [4 11 7 16 17 13 14 15 20 21 27 35 34 39 23 24 38 40 41 43 30 31 32 28 36 48 44 45 52 53 55 56 58 61 62 49 50 64 60 65 66 67 68 72 73 83 74 80]</text>
</g>
<!-- T645 -->
<g id="node3" class="node">
<title>T645</title>
<polygon fill="none" stroke="#0058ad" points="1182,-81.5 1182,-110.5 2046,-110.5 2046,-81.5 1182,-81.5"/>
<text text-anchor="middle" x="1212.5" y="-92.3" font-family="Times,serif" font-size="14.00" fill="#0058ad">a 8 87</text>
<polyline fill="none" stroke="#0058ad" points="1243,-81.5 1243,-110.5 "/>
<text text-anchor="middle" x="1644.5" y="-92.3" font-family="Times,serif" font-size="14.00" fill="#0058ad">r 10 [1 4 6 7 8 10 11 14 15 16 17 20 21 22 27 30 2 3 26 34 31 35 36 38 41 42 43 46 47 49 52 53 58 61 59 60]</text>
</g>
<!-- T644&#45;&gt;T645 -->
<g id="edge1" class="edge">
<title>T644:f3&#45;&gt;T645:f0</title>
<path fill="none" stroke="#5b00c0" d="M2312,-162C2312,79.24 1242.93,-343.43 1212.66,-120.99"/>
<polygon fill="#5b00c0" stroke="#5b00c0" points="1216.15,-120.75 1212,-111 1209.16,-121.21 1216.15,-120.75"/>
<text text-anchor="middle" x="2315.5" y="-132.8" font-family="Times,serif" font-size="14.00" fill="#5b00c0">rw</text>
</g>
<!-- T620 -->
<g id="node2" class="node">
<title>T620</title>
<polygon fill="none" stroke="#0058ad" points="767.5,-0.5 767.5,-29.5 968.5,-29.5 968.5,-0.5 767.5,-0.5"/>
<text text-anchor="middle" x="802.5" y="-11.3" font-family="Times,serif" font-size="14.00" fill="#0058ad">a 10 54</text>
<polyline fill="none" stroke="#0058ad" points="837.5,-0.5 837.5,-29.5 "/>
<text text-anchor="middle" x="872.5" y="-11.3" font-family="Times,serif" font-size="14.00" fill="#0058ad">a 10 55</text>
<polyline fill="none" stroke="#0058ad" points="907.5,-0.5 907.5,-29.5 "/>
<text text-anchor="middle" x="938" y="-11.3" font-family="Times,serif" font-size="14.00" fill="#0058ad">a 7 28</text>
</g>
<!-- T620&#45;&gt;T644 -->
<g id="edge2" class="edge">
<title>T620:f1&#45;&gt;T644:f1</title>
<path fill="none" stroke="#c000a5" d="M873,-30C873,-62.98 832.55,-38.39 801,-48 661.52,-90.48 493.1,-16.32 485.28,-151.87"/>
<polygon fill="#c000a5" stroke="#c000a5" points="481.78,-151.91 485,-162 488.78,-152.1 481.78,-151.91"/>
<text text-anchor="middle" x="533.5" y="-92.3" font-family="Times,serif" font-size="14.00" fill="#c000a5">wr</text>
</g>
<!-- T645&#45;&gt;T620 -->
<g id="edge3" class="edge">
<title>T645:f1&#45;&gt;T620:f0</title>
<path fill="none" stroke="#5b00c0" d="M1645,-81C1645,103.01 834.61,-205.2 802.95,-40.42"/>
<polygon fill="#5b00c0" stroke="#5b00c0" points="806.4,-39.64 802,-30 799.42,-40.28 806.4,-39.64"/>
<text text-anchor="middle" x="1650.5" y="-51.8" font-family="Times,serif" font-size="14.00" fill="#5b00c0">rw</text>
</g>
</g>
</svg>
