<?xml version="1.0" encoding="UTF-8" standalone="no"?>
<!DOCTYPE svg PUBLIC "-//W3C//DTD SVG 1.1//EN"
 "http://www.w3.org/Graphics/SVG/1.1/DTD/svg11.dtd">
<!-- Generated by graphviz version 2.43.0 (0)
 -->
<!-- Title: a_graph Pages: 1 -->
<svg width="2150pt" height="119pt"
 viewBox="0.00 0.00 2150.00 119.00" xmlns="http://www.w3.org/2000/svg" xmlns:xlink="http://www.w3.org/1999/xlink">
<g id="graph0" class="graph" transform="scale(1 1) rotate(0) translate(4 115)">
<title>a_graph</title>
<polygon fill="white" stroke="transparent" points="-4,4 -4,-115 2146,-115 2146,4 -4,4"/>
<!-- T2312 -->
<g id="node1" class="node">
<title>T2312</title>
<polygon fill="none" stroke="#0058ad" points="239,-81.5 239,-110.5 847,-110.5 847,-81.5 239,-81.5"/>
<text text-anchor="middle" x="355" y="-92.3" font-family="Times,serif" font-size="14.00" fill="#0058ad">r 15 [1 2 4 6 5 3 7 9 12 13 14]</text>
<polyline fill="none" stroke="#0058ad" points="471,-81.5 471,-110.5 "/>
<text text-anchor="middle" x="512.5" y="-92.3" font-family="Times,serif" font-size="14.00" fill="#0058ad">r 16 [1 3]</text>
<polyline fill="none" stroke="#0058ad" points="554,-81.5 554,-110.5 "/>
<text text-anchor="middle" x="670" y="-92.3" font-family="Times,serif" font-size="14.00" fill="#0058ad">r 15 [1 2 4 6 5 3 7 9 12 13 14]</text>
<polyline fill="none" stroke="#0058ad" points="786,-81.5 786,-110.5 "/>
<text text-anchor="middle" x="816.5" y="-92.3" font-family="Times,serif" font-size="14.00" fill="#0058ad">a 6 81</text>
</g>
<!-- T2297 -->
<g id="node2" class="node">
<title>T2297</title>
<polygon fill="none" stroke="#0058ad" points="0,-0.5 0,-29.5 2142,-29.5 2142,-0.5 0,-0.5"/>
<text text-anchor="middle" x="35" y="-11.3" font-family="Times,serif" font-size="14.00" fill="#0058ad">a 15 18</text>
<polyline fill="none" stroke="#0058ad" points="70,-0.5 70,-29.5 "/>
<text text-anchor="middle" x="440" y="-11.3" font-family="Times,serif" font-size="14.00" fill="#0058ad">r 14 [2 5 7 8 3 4 1 6 17 18 19 20 21 23 9 26 28 30 34 36 32 29 41 42 43 25 49 63 71 68 66 67 64 81]</text>
<polyline fill="none" stroke="#0058ad" points="810,-0.5 810,-29.5 "/>
<text text-anchor="middle" x="1349" y="-11.3" font-family="Times,serif" font-size="14.00" fill="#0058ad">r 6 [2 7 8 10 11 13 14 15 16 22 25 26 28 32 33 30 35 36 37 39 40 43 44 45 46 48 50 49 52 53 56 58 57 59 60 63 64 61 65 66 67 68 69 70 72 74 79]</text>
<polyline fill="none" stroke="#0058ad" points="1888,-0.5 1888,-29.5 "/>
<text text-anchor="middle" x="2015" y="-11.3" font-family="Times,serif" font-size="14.00" fill="#0058ad">r 15 [1 2 4 6 5 3 7 9 12 13 14 18]</text>
</g>
<!-- T2312&#45;&gt;T2297 -->
<g id="edge1" class="edge">
<title>T2312:f0&#45;&gt;T2297:f0</title>
<path fill="none" stroke="#5b00c0" d="M238,-96C193.99,-96 56.92,-80.02 37.34,-39.84"/>
<polygon fill="#5b00c0" stroke="#5b00c0" points="40.72,-38.92 35,-30 33.91,-40.54 40.72,-38.92"/>
<text text-anchor="middle" x="71.5" y="-51.8" font-family="Times,serif" font-size="14.00" fill="#5b00c0">rw</text>
</g>
<!-- T2297&#45;&gt;T2312 -->
<g id="edge2" class="edge">
<title>T2297:f2&#45;&gt;T2312:f3</title>
<path fill="none" stroke="#5b00c0" d="M1349,-30C1349,-83.57 944.05,-95 858.11,-95.93"/>
<polygon fill="#5b00c0" stroke="#5b00c0" points="857.98,-92.43 848,-96 858.02,-99.43 857.98,-92.43"/>
<text text-anchor="middle" x="1340.5" y="-51.8" font-family="Times,serif" font-size="14.00" fill="#5b00c0">rw</text>
</g>
</g>
</svg>
