<?xml version="1.0" encoding="UTF-8" standalone="no"?>
<!DOCTYPE svg PUBLIC "-//W3C//DTD SVG 1.1//EN"
 "http://www.w3.org/Graphics/SVG/1.1/DTD/svg11.dtd">
<!-- Generated by graphviz version 2.43.0 (0)
 -->
<!-- Title: a_graph Pages: 1 -->
<svg width="1186pt" height="281pt"
 viewBox="0.00 0.00 1185.74 281.00" xmlns="http://www.w3.org/2000/svg" xmlns:xlink="http://www.w3.org/1999/xlink">
<g id="graph0" class="graph" transform="scale(1 1) rotate(0) translate(4 277)">
<title>a_graph</title>
<polygon fill="white" stroke="transparent" points="-4,4 -4,-277 1181.74,-277 1181.74,4 -4,4"/>
<!-- T1455 -->
<g id="node1" class="node">
<title>T1455</title>
<polygon fill="none" stroke="#0058ad" points="48.74,-243.5 48.74,-272.5 863.74,-272.5 863.74,-243.5 48.74,-243.5"/>
<text text-anchor="middle" x="79.24" y="-254.3" font-family="Times,serif" font-size="14.00" fill="#0058ad">a 13 4</text>
<polyline fill="none" stroke="#0058ad" points="109.74,-243.5 109.74,-272.5 "/>
<text text-anchor="middle" x="140.24" y="-254.3" font-family="Times,serif" font-size="14.00" fill="#0058ad">a 13 5</text>
<polyline fill="none" stroke="#0058ad" points="170.74,-243.5 170.74,-272.5 "/>
<text text-anchor="middle" x="486.74" y="-254.3" font-family="Times,serif" font-size="14.00" fill="#0058ad">r 11 [1 2 3 7 11 4 5 17 18 22 34 30 36 31 44 39 45 46 43 48 42 47 51 52 50 53 55 56]</text>
<polyline fill="none" stroke="#0058ad" points="802.74,-243.5 802.74,-272.5 "/>
<text text-anchor="middle" x="833.24" y="-254.3" font-family="Times,serif" font-size="14.00" fill="#0058ad">a 13 6</text>
</g>
<!-- T1449 -->
<g id="node2" class="node">
<title>T1449</title>
<polygon fill="none" stroke="#0058ad" points="330.74,-162.5 330.74,-191.5 1177.74,-191.5 1177.74,-162.5 330.74,-162.5"/>
<text text-anchor="middle" x="361.24" y="-173.3" font-family="Times,serif" font-size="14.00" fill="#0058ad">r 13 []</text>
<polyline fill="none" stroke="#0058ad" points="391.74,-162.5 391.74,-191.5 "/>
<text text-anchor="middle" x="422.24" y="-173.3" font-family="Times,serif" font-size="14.00" fill="#0058ad">a 6 53</text>
<polyline fill="none" stroke="#0058ad" points="452.74,-162.5 452.74,-191.5 "/>
<text text-anchor="middle" x="487.74" y="-173.3" font-family="Times,serif" font-size="14.00" fill="#0058ad">a 11 60</text>
<polyline fill="none" stroke="#0058ad" points="522.74,-162.5 522.74,-191.5 "/>
<text text-anchor="middle" x="850.24" y="-173.3" font-family="Times,serif" font-size="14.00" fill="#0058ad">r 11 [1 2 3 7 11 4 5 17 18 22 34 30 36 31 44 39 45 46 43 48 42 47 51 52 50 53 55 56 60]</text>
</g>
<!-- T1455&#45;&gt;T1449 -->
<g id="edge1" class="edge">
<title>T1455:f2&#45;&gt;T1449:f2</title>
<path fill="none" stroke="#5b00c0" d="M487.24,-243C487.24,-224.23 487.24,-217.12 487.24,-202.35"/>
<polygon fill="#5b00c0" stroke="#5b00c0" points="490.74,-202 487.24,-192 483.74,-202 490.74,-202"/>
<text text-anchor="middle" x="496.74" y="-213.8" font-family="Times,serif" font-size="14.00" fill="#5b00c0">rw</text>
</g>
<!-- T1440 -->
<g id="node5" class="node">
<title>T1440</title>
<polygon fill="none" stroke="#0058ad" points="107.24,-81.5 107.24,-110.5 1045.24,-110.5 1045.24,-81.5 107.24,-81.5"/>
<text text-anchor="middle" x="423.24" y="-92.3" font-family="Times,serif" font-size="14.00" fill="#0058ad">r 11 [1 2 3 7 11 4 5 17 18 22 34 30 36 31 44 39 45 46 43 48 42 47 51 52 50 53 55 56]</text>
<polyline fill="none" stroke="#0058ad" points="739.24,-81.5 739.24,-110.5 "/>
<text text-anchor="middle" x="769.74" y="-92.3" font-family="Times,serif" font-size="14.00" fill="#0058ad">a 13 3</text>
<polyline fill="none" stroke="#0058ad" points="800.24,-81.5 800.24,-110.5 "/>
<text text-anchor="middle" x="922.74" y="-92.3" font-family="Times,serif" font-size="14.00" fill="#0058ad">r 5 [1 5 6 11 13 12 14 18 20 21]</text>
</g>
<!-- T1449&#45;&gt;T1440 -->
<g id="edge2" class="edge">
<title>T1449:f0&#45;&gt;T1440:f1</title>
<path fill="none" stroke="#5b00c0" d="M361.24,-162C361.24,-134.25 387.76,-137.3 414.24,-129 431.33,-123.64 708.63,-129.45 761.55,-115.97"/>
<polygon fill="#5b00c0" stroke="#5b00c0" points="763.29,-119 770.24,-111 759.82,-112.92 763.29,-119"/>
<text text-anchor="middle" x="423.74" y="-132.8" font-family="Times,serif" font-size="14.00" fill="#5b00c0">rw</text>
</g>
<!-- T1447 -->
<g id="node3" class="node">
<title>T1447</title>
<polygon fill="none" stroke="#0058ad" points="16.24,-0.5 16.24,-29.5 86.24,-29.5 86.24,-0.5 16.24,-0.5"/>
<text text-anchor="middle" x="51.24" y="-11.3" font-family="Times,serif" font-size="14.00" fill="#0058ad">r 13 [3]</text>
</g>
<!-- T1447&#45;&gt;T1455 -->
<g id="edge3" class="edge">
<title>T1447:f0&#45;&gt;T1455:f0</title>
<path fill="none" stroke="#5b00c0" d="M44.77,-29.83C23.39,-80.53 -39.36,-244.48 37.2,-257.21"/>
<polygon fill="#5b00c0" stroke="#5b00c0" points="37,-260.71 47.24,-258 37.54,-253.73 37,-260.71"/>
<text text-anchor="middle" x="19.74" y="-132.8" font-family="Times,serif" font-size="14.00" fill="#5b00c0">rw</text>
</g>
<!-- T1445 -->
<g id="node4" class="node">
<title>T1445</title>
<polygon fill="none" stroke="#0058ad" points="111.24,-0.5 111.24,-29.5 181.24,-29.5 181.24,-0.5 111.24,-0.5"/>
<text text-anchor="middle" x="146.24" y="-11.3" font-family="Times,serif" font-size="14.00" fill="#0058ad">r 13 [3]</text>
</g>
<!-- T1445&#45;&gt;T1455 -->
<g id="edge4" class="edge">
<title>T1445:f0&#45;&gt;T1455:f0</title>
<path fill="none" stroke="#5b00c0" d="M132.12,-29.65C120.93,-42.21 105.93,-61.34 98.24,-81 73.13,-145.22 78.6,-168.25 79.19,-232.73"/>
<polygon fill="#5b00c0" stroke="#5b00c0" points="75.69,-233.02 79.24,-243 82.69,-232.98 75.69,-233.02"/>
<text text-anchor="middle" x="92.74" y="-132.8" font-family="Times,serif" font-size="14.00" fill="#5b00c0">rw</text>
</g>
<!-- T1440&#45;&gt;T1455 -->
<g id="edge5" class="edge">
<title>T1440:f1&#45;&gt;T1455:f0</title>
<path fill="none" stroke="#c02700" d="M770.24,-111C770.24,-133.58 386.31,-124.24 364.24,-129 333.64,-135.6 119.06,-197.41 84.06,-233.88"/>
<polygon fill="#c02700" stroke="#c02700" points="80.82,-232.52 79.24,-243 87.01,-235.8 80.82,-232.52"/>
<text text-anchor="middle" x="262.74" y="-173.3" font-family="Times,serif" font-size="14.00" fill="#c02700">ww</text>
</g>
<!-- T1440&#45;&gt;T1449 -->
<g id="edge7" class="edge">
<title>T1440:f0&#45;&gt;T1449:f2</title>
<path fill="none" stroke="#5b00c0" d="M423.24,-111C423.24,-126.06 467.13,-138.68 482.22,-152.9"/>
<polygon fill="#5b00c0" stroke="#5b00c0" points="479.34,-154.94 487.24,-162 485.47,-151.55 479.34,-154.94"/>
<text text-anchor="middle" x="477.74" y="-132.8" font-family="Times,serif" font-size="14.00" fill="#5b00c0">rw</text>
</g>
<!-- T1440&#45;&gt;T1447 -->
<g id="edge8" class="edge">
<title>T1440:f1&#45;&gt;T1447:f0</title>
<path fill="none" stroke="#c000a5" d="M770.24,-81C770.24,-63.08 181.67,-37.76 94.87,-30.72"/>
<polygon fill="#c000a5" stroke="#c000a5" points="95.01,-27.21 84.69,-29.6 94.25,-34.17 95.01,-27.21"/>
<text text-anchor="middle" x="634.74" y="-51.8" font-family="Times,serif" font-size="14.00" fill="#c000a5">wr</text>
</g>
<!-- T1440&#45;&gt;T1445 -->
<g id="edge6" class="edge">
<title>T1440:f1&#45;&gt;T1445:f0</title>
<path fill="none" stroke="#c000a5" d="M770.24,-81C770.24,-17.94 286.31,-43.15 189.35,-31.2"/>
<polygon fill="#c000a5" stroke="#c000a5" points="189.75,-27.72 179.3,-29.5 188.58,-34.62 189.75,-27.72"/>
<text text-anchor="middle" x="758.74" y="-51.8" font-family="Times,serif" font-size="14.00" fill="#c000a5">wr</text>
</g>
</g>
</svg>
