<?xml version="1.0" encoding="UTF-8" standalone="no"?>
<!DOCTYPE svg PUBLIC "-//W3C//DTD SVG 1.1//EN"
 "http://www.w3.org/Graphics/SVG/1.1/DTD/svg11.dtd">
<!-- Generated by graphviz version 2.43.0 (0)
 -->
<!-- Title: a_graph Pages: 1 -->
<svg width="1056pt" height="119pt"
 viewBox="0.00 0.00 1055.50 119.00" xmlns="http://www.w3.org/2000/svg" xmlns:xlink="http://www.w3.org/1999/xlink">
<g id="graph0" class="graph" transform="scale(1 1) rotate(0) translate(4 115)">
<title>a_graph</title>
<polygon fill="white" stroke="transparent" points="-4,4 -4,-115 1051.5,-115 1051.5,4 -4,4"/>
<!-- T194 -->
<g id="node1" class="node">
<title>T194</title>
<polygon fill="none" stroke="#0058ad" points="0,-81.5 0,-110.5 779,-110.5 779,-81.5 0,-81.5"/>
<text text-anchor="middle" x="30.5" y="-92.3" font-family="Times,serif" font-size="14.00" fill="#0058ad">a 9 57</text>
<polyline fill="none" stroke="#0058ad" points="61,-81.5 61,-110.5 "/>
<text text-anchor="middle" x="154.5" y="-92.3" font-family="Times,serif" font-size="14.00" fill="#0058ad">r 8 [4 11 7 16 17 13 14]</text>
<polyline fill="none" stroke="#0058ad" points="248,-81.5 248,-110.5 "/>
<text text-anchor="middle" x="483" y="-92.3" font-family="Times,serif" font-size="14.00" fill="#0058ad">r 9 [1 2 5 15 16 35 30 27 28 50 58 61 62 66 41 67 43 44 45 57]</text>
<polyline fill="none" stroke="#0058ad" points="718,-81.5 718,-110.5 "/>
<text text-anchor="middle" x="748.5" y="-92.3" font-family="Times,serif" font-size="14.00" fill="#0058ad">r 6 [2]</text>
</g>
<!-- T192 -->
<g id="node2" class="node">
<title>T192</title>
<polygon fill="none" stroke="#0058ad" points="99.5,-0.5 99.5,-29.5 1047.5,-29.5 1047.5,-0.5 99.5,-0.5"/>
<text text-anchor="middle" x="323.5" y="-11.3" font-family="Times,serif" font-size="14.00" fill="#0058ad">r 9 [1 2 5 15 16 35 30 27 28 50 58 61 62 66 41 67 43 44 45]</text>
<polyline fill="none" stroke="#0058ad" points="547.5,-0.5 547.5,-29.5 "/>
<text text-anchor="middle" x="573.5" y="-11.3" font-family="Times,serif" font-size="14.00" fill="#0058ad">a 6 7</text>
<polyline fill="none" stroke="#0058ad" points="599.5,-0.5 599.5,-29.5 "/>
<text text-anchor="middle" x="823.5" y="-11.3" font-family="Times,serif" font-size="14.00" fill="#0058ad">r 9 [1 2 5 15 16 35 30 27 28 50 58 61 62 66 41 67 43 44 45]</text>
</g>
<!-- T194&#45;&gt;T192 -->
<g id="edge1" class="edge">
<title>T194:f3&#45;&gt;T192:f1</title>
<path fill="none" stroke="#5b00c0" d="M748.5,-81C748.5,-3.78 589.52,-101.03 574.62,-40.17"/>
<polygon fill="#5b00c0" stroke="#5b00c0" points="578.07,-39.56 573.5,-30 571.11,-40.32 578.07,-39.56"/>
<text text-anchor="middle" x="753" y="-51.8" font-family="Times,serif" font-size="14.00" fill="#5b00c0">rw</text>
</g>
<!-- T192&#45;&gt;T194 -->
<g id="edge2" class="edge">
<title>T192:f0&#45;&gt;T194:f0</title>
<path fill="none" stroke="#5b00c0" d="M98.5,-15C59.84,-15 34.86,-35.13 31.02,-71.01"/>
<polygon fill="#5b00c0" stroke="#5b00c0" points="27.52,-70.83 30.5,-81 34.51,-71.19 27.52,-70.83"/>
<text text-anchor="middle" x="46" y="-51.8" font-family="Times,serif" font-size="14.00" fill="#5b00c0">rw</text>
</g>
</g>
</svg>
