<?xml version="1.0" encoding="UTF-8" standalone="no"?>
<!DOCTYPE svg PUBLIC "-//W3C//DTD SVG 1.1//EN"
 "http://www.w3.org/Graphics/SVG/1.1/DTD/svg11.dtd">
<!-- Generated by graphviz version 2.43.0 (0)
 -->
<!-- Title: a_graph Pages: 1 -->
<svg width="1783pt" height="200pt"
 viewBox="0.00 0.00 1783.00 200.00" xmlns="http://www.w3.org/2000/svg" xmlns:xlink="http://www.w3.org/1999/xlink">
<g id="graph0" class="graph" transform="scale(1 1) rotate(0) translate(4 196)">
<title>a_graph</title>
<polygon fill="white" stroke="transparent" points="-4,4 -4,-196 1779,-196 1779,4 -4,4"/>
<!-- T538 -->
<g id="node1" class="node">
<title>T538</title>
<polygon fill="none" stroke="#0058ad" points="0,-162.5 0,-191.5 1775,-191.5 1775,-162.5 0,-162.5"/>
<text text-anchor="middle" x="509.5" y="-173.3" font-family="Times,serif" font-size="14.00" fill="#0058ad">r 8 [4 11 7 16 17 13 14 15 20 21 27 35 34 39 23 24 38 40 41 43 30 31 32 28 36 48 44 45 52 53 55 56 58 61 62 49 50 64 60 65 66 67 68 72]</text>
<polyline fill="none" stroke="#0058ad" points="1019,-162.5 1019,-191.5 "/>
<text text-anchor="middle" x="1119" y="-173.3" font-family="Times,serif" font-size="14.00" fill="#0058ad">r 6 [2 7 8 10 11 13 14 15]</text>
<polyline fill="none" stroke="#0058ad" points="1219,-162.5 1219,-191.5 "/>
<text text-anchor="middle" x="1497" y="-173.3" font-family="Times,serif" font-size="14.00" fill="#0058ad">r 10 [1 4 6 7 8 10 11 14 15 16 17 20 21 22 27 30 2 3 26 34 31 35 36 38 41]</text>
</g>
<!-- T536 -->
<g id="node3" class="node">
<title>T536</title>
<polygon fill="none" stroke="#0058ad" points="750.5,-81.5 750.5,-110.5 1344.5,-110.5 1344.5,-81.5 750.5,-81.5"/>
<text text-anchor="middle" x="1017" y="-92.3" font-family="Times,serif" font-size="14.00" fill="#0058ad">r 10 [1 4 6 7 8 10 11 14 15 16 17 20 21 22 27 30 2 3 26 34 31 35 36 38]</text>
<polyline fill="none" stroke="#0058ad" points="1283.5,-81.5 1283.5,-110.5 "/>
<text text-anchor="middle" x="1314" y="-92.3" font-family="Times,serif" font-size="14.00" fill="#0058ad">a 6 16</text>
</g>
<!-- T538&#45;&gt;T536 -->
<g id="edge1" class="edge">
<title>T538:f1&#45;&gt;T536:f1</title>
<path fill="none" stroke="#5b00c0" d="M1119.5,-162C1119.5,-76.27 1298.1,-189.97 1313.45,-121.38"/>
<polygon fill="#5b00c0" stroke="#5b00c0" points="1316.98,-121.3 1314.5,-111 1310.01,-120.6 1316.98,-121.3"/>
<text text-anchor="middle" x="1318" y="-132.8" font-family="Times,serif" font-size="14.00" fill="#5b00c0">rw</text>
</g>
<!-- T580 -->
<g id="node2" class="node">
<title>T580</title>
<polygon fill="none" stroke="#ac6e00" points="1143,-0.5 1143,-29.5 1272,-29.5 1272,-0.5 1143,-0.5"/>
<text text-anchor="middle" x="1172.5" y="-11.3" font-family="Times,serif" font-size="14.00" fill="#ac6e00">r 8 nil</text>
<polyline fill="none" stroke="#ac6e00" points="1202,-0.5 1202,-29.5 "/>
<text text-anchor="middle" x="1237" y="-11.3" font-family="Times,serif" font-size="14.00" fill="#ac6e00">a 10 41</text>
</g>
<!-- T580&#45;&gt;T538 -->
<g id="edge2" class="edge">
<title>T580:f1&#45;&gt;T538:f2</title>
<path fill="none" stroke="#c000a5" d="M1273.5,-15C1389.09,-15 1491.34,-41.31 1497.23,-151.77"/>
<polygon fill="#c000a5" stroke="#c000a5" points="1493.74,-152.1 1497.5,-162 1500.74,-151.91 1493.74,-152.1"/>
<text text-anchor="middle" x="1498" y="-92.3" font-family="Times,serif" font-size="14.00" fill="#c000a5">wr</text>
</g>
<!-- T536&#45;&gt;T580 -->
<g id="edge3" class="edge">
<title>T536:f0&#45;&gt;T580:f1</title>
<path fill="none" stroke="#5b00c0" d="M1016.5,-81C1016.5,16.06 1221.4,-119.97 1236.61,-40.21"/>
<polygon fill="#5b00c0" stroke="#5b00c0" points="1240.12,-40.27 1237.5,-30 1233.14,-39.66 1240.12,-40.27"/>
<text text-anchor="middle" x="1242" y="-51.8" font-family="Times,serif" font-size="14.00" fill="#5b00c0">rw</text>
</g>
</g>
</svg>
