<?xml version="1.0" encoding="UTF-8" standalone="no"?>
<!DOCTYPE svg PUBLIC "-//W3C//DTD SVG 1.1//EN"
 "http://www.w3.org/Graphics/SVG/1.1/DTD/svg11.dtd">
<!-- Generated by graphviz version 2.43.0 (0)
 -->
<!-- Title: a_graph Pages: 1 -->
<svg width="3795pt" height="200pt"
 viewBox="0.00 0.00 3795.00 200.00" xmlns="http://www.w3.org/2000/svg" xmlns:xlink="http://www.w3.org/1999/xlink">
<g id="graph0" class="graph" transform="scale(1 1) rotate(0) translate(4 196)">
<title>a_graph</title>
<polygon fill="white" stroke="transparent" points="-4,4 -4,-196 3791,-196 3791,4 -4,4"/>
<!-- T1972 -->
<g id="node1" class="node">
<title>T1972</title>
<polygon fill="none" stroke="#0058ad" points="2529,-162.5 2529,-191.5 2882,-191.5 2882,-162.5 2529,-162.5"/>
<text text-anchor="middle" x="2597.5" y="-173.3" font-family="Times,serif" font-size="14.00" fill="#0058ad">r 14 [2 5 7 8 3 4]</text>
<polyline fill="none" stroke="#0058ad" points="2666,-162.5 2666,-191.5 "/>
<text text-anchor="middle" x="2734.5" y="-173.3" font-family="Times,serif" font-size="14.00" fill="#0058ad">r 14 [2 5 7 8 3 4]</text>
<polyline fill="none" stroke="#0058ad" points="2803,-162.5 2803,-191.5 "/>
<text text-anchor="middle" x="2842.5" y="-173.3" font-family="Times,serif" font-size="14.00" fill="#0058ad">a 11 122</text>
</g>
<!-- T1970 -->
<g id="node3" class="node">
<title>T1970</title>
<polygon fill="none" stroke="#0058ad" points="0,-81.5 0,-110.5 3555,-110.5 3555,-81.5 0,-81.5"/>
<text text-anchor="middle" x="35" y="-92.3" font-family="Times,serif" font-size="14.00" fill="#0058ad">a 7 111</text>
<polyline fill="none" stroke="#0058ad" points="70,-81.5 70,-110.5 "/>
<text text-anchor="middle" x="100.5" y="-92.3" font-family="Times,serif" font-size="14.00" fill="#0058ad">a 14 1</text>
<polyline fill="none" stroke="#0058ad" points="131,-81.5 131,-110.5 "/>
<text text-anchor="middle" x="1050" y="-92.3" font-family="Times,serif" font-size="14.00" fill="#0058ad">r 7 [1 2 6 4 10 12 14 13 15 17 19 22 24 26 27 30 28 31 33 34 35 36 38 40 41 42 44 46 48 49 50 51 47 52 53 54 55 58 56 59 61 60 62 68 69 70 71 66 73 72 74 77 79 76 78 75 80 82 83 84 86 85 89 92 91 93 94 95 97 98 103 105 100 108 109 110 112 111]</text>
<polyline fill="none" stroke="#0058ad" points="1969,-81.5 1969,-110.5 "/>
<text text-anchor="middle" x="2762" y="-92.3" font-family="Times,serif" font-size="14.00" fill="#0058ad">r 11 [1 2 3 7 11 4 5 17 18 22 34 30 36 31 44 39 45 46 43 48 42 47 51 52 50 53 55 56 60 58 61 62 59 66 67 71 65 69 70 75 78 80 81 83 85 86 84 90 87 95 89 92 93 97 103 102 104 105 100 101 98 106 107 116 117 118]</text>
</g>
<!-- T1972&#45;&gt;T1970 -->
<g id="edge1" class="edge">
<title>T1972:f0&#45;&gt;T1970:f1</title>
<path fill="none" stroke="#5b00c0" d="M2527.5,-177C2495.03,-177 274.88,-147.07 110.14,-114.75"/>
<polygon fill="#5b00c0" stroke="#5b00c0" points="111.09,-111.36 100.5,-111 108.55,-117.88 111.09,-111.36"/>
<text text-anchor="middle" x="754" y="-132.8" font-family="Times,serif" font-size="14.00" fill="#5b00c0">rw</text>
</g>
<!-- T1966 -->
<g id="node2" class="node">
<title>T1966</title>
<polygon fill="none" stroke="#0058ad" points="2630,-0.5 2630,-29.5 3787,-29.5 3787,-0.5 2630,-0.5"/>
<text text-anchor="middle" x="2669.5" y="-11.3" font-family="Times,serif" font-size="14.00" fill="#0058ad">a 11 109</text>
<polyline fill="none" stroke="#0058ad" points="2709,-0.5 2709,-29.5 "/>
<text text-anchor="middle" x="2748.5" y="-11.3" font-family="Times,serif" font-size="14.00" fill="#0058ad">a 13 116</text>
<polyline fill="none" stroke="#0058ad" points="2788,-0.5 2788,-29.5 "/>
<text text-anchor="middle" x="3248" y="-11.3" font-family="Times,serif" font-size="14.00" fill="#0058ad">r 6 [2 7 8 10 11 13 14 15 16 22 25 26 28 32 33 30 35 36 37 39 40 43 44 45 46 48 50 49 52 53 56 58 57 59 60 63 64 61 65 66]</text>
<polyline fill="none" stroke="#0058ad" points="3708,-0.5 3708,-29.5 "/>
<text text-anchor="middle" x="3747.5" y="-11.3" font-family="Times,serif" font-size="14.00" fill="#0058ad">a 11 110</text>
</g>
<!-- T1966&#45;&gt;T1972 -->
<g id="edge2" class="edge">
<title>T1966:f3&#45;&gt;T1972:f2</title>
<path fill="none" stroke="#c02700" d="M3747.5,-30C3747.5,-119.35 3649.95,-88.4 3563.5,-111 3419.77,-148.58 3051.6,-175.81 2893.6,-176.96"/>
<polygon fill="#c02700" stroke="#c02700" points="2893.49,-173.46 2883.5,-177 2893.51,-180.46 2893.49,-173.46"/>
<text text-anchor="middle" x="3739" y="-92.3" font-family="Times,serif" font-size="14.00" fill="#c02700">ww</text>
</g>
<!-- T1970&#45;&gt;T1966 -->
<g id="edge3" class="edge">
<title>T1970:f3&#45;&gt;T1966:f0</title>
<path fill="none" stroke="#5b00c0" d="M2762.5,-81C2762.5,-37.73 2684.13,-70.65 2671.27,-39.88"/>
<polygon fill="#5b00c0" stroke="#5b00c0" points="2674.71,-39.22 2669.5,-30 2667.82,-40.46 2674.71,-39.22"/>
<text text-anchor="middle" x="2763" y="-51.8" font-family="Times,serif" font-size="14.00" fill="#5b00c0">rw</text>
</g>
</g>
</svg>
