<?xml version="1.0" encoding="UTF-8" standalone="no"?>
<!DOCTYPE svg PUBLIC "-//W3C//DTD SVG 1.1//EN"
 "http://www.w3.org/Graphics/SVG/1.1/DTD/svg11.dtd">
<!-- Generated by graphviz version 2.43.0 (0)
 -->
<!-- Title: a_graph Pages: 1 -->
<svg width="6265pt" height="200pt"
 viewBox="0.00 0.00 6264.50 200.00" xmlns="http://www.w3.org/2000/svg" xmlns:xlink="http://www.w3.org/1999/xlink">
<g id="graph0" class="graph" transform="scale(1 1) rotate(0) translate(4 196)">
<title>a_graph</title>
<polygon fill="white" stroke="transparent" points="-4,4 -4,-196 6260.5,-196 6260.5,4 -4,4"/>
<!-- T715 -->
<g id="node1" class="node">
<title>T715</title>
<polygon fill="none" stroke="#0058ad" points="4464.5,-162.5 4464.5,-191.5 4534.5,-191.5 4534.5,-162.5 4464.5,-162.5"/>
<text text-anchor="middle" x="4499.5" y="-173.3" font-family="Times,serif" font-size="14.00" fill="#0058ad">a 10 78</text>
</g>
<!-- T729 -->
<g id="node2" class="node">
<title>T729</title>
<polygon fill="none" stroke="#0058ad" points="0,-81.5 0,-110.5 2759,-110.5 2759,-81.5 0,-81.5"/>
<text text-anchor="middle" x="491.5" y="-92.3" font-family="Times,serif" font-size="14.00" fill="#0058ad">r 10 [1 4 6 7 8 10 11 14 15 16 17 20 21 22 27 30 2 3 26 34 31 35 36 38 41 42 43 46 47 49 52 53 58 61 59 60 54 55 63 64 65 66 68 78]</text>
<polyline fill="none" stroke="#0058ad" points="983,-81.5 983,-110.5 "/>
<text text-anchor="middle" x="1225" y="-92.3" font-family="Times,serif" font-size="14.00" fill="#0058ad">r 7 [1 2 6 4 10 12 14 13 15 17 19 22 24 26 27 30 28 31 33 34 35]</text>
<polyline fill="none" stroke="#0058ad" points="1467,-81.5 1467,-110.5 "/>
<text text-anchor="middle" x="1497.5" y="-92.3" font-family="Times,serif" font-size="14.00" fill="#0058ad">a 6 28</text>
<polyline fill="none" stroke="#0058ad" points="1528,-81.5 1528,-110.5 "/>
<text text-anchor="middle" x="2143.5" y="-92.3" font-family="Times,serif" font-size="14.00" fill="#0058ad">r 8 [4 11 7 16 17 13 14 15 20 21 27 35 34 39 23 24 38 40 41 43 30 31 32 28 36 48 44 45 52 53 55 56 58 61 62 49 50 64 60 65 66 67 68 72 73 83 74 80 87 89 90 97 100]</text>
</g>
<!-- T715&#45;&gt;T729 -->
<g id="edge1" class="edge">
<title>T715:f0&#45;&gt;T729:f0</title>
<path fill="none" stroke="#c000a5" d="M4466.45,-162.45C4465.8,-162.29 4465.15,-162.14 4464.5,-162 4412.04,-150.88 710.38,-165.32 500.75,-115.52"/>
<polygon fill="#c000a5" stroke="#c000a5" points="502.02,-112.24 491.5,-111 498.95,-118.53 502.02,-112.24"/>
<text text-anchor="middle" x="1252" y="-132.8" font-family="Times,serif" font-size="14.00" fill="#c000a5">wr</text>
</g>
<!-- T724 -->
<g id="node3" class="node">
<title>T724</title>
<polygon fill="none" stroke="#0058ad" points="2777,-81.5 2777,-110.5 6222,-110.5 6222,-81.5 2777,-81.5"/>
<text text-anchor="middle" x="3392.5" y="-92.3" font-family="Times,serif" font-size="14.00" fill="#0058ad">r 8 [4 11 7 16 17 13 14 15 20 21 27 35 34 39 23 24 38 40 41 43 30 31 32 28 36 48 44 45 52 53 55 56 58 61 62 49 50 64 60 65 66 67 68 72 73 83 74 80 87 89 90 97 100]</text>
<polyline fill="none" stroke="#0058ad" points="4008,-81.5 4008,-110.5 "/>
<text text-anchor="middle" x="4499.5" y="-92.3" font-family="Times,serif" font-size="14.00" fill="#0058ad">r 10 [1 4 6 7 8 10 11 14 15 16 17 20 21 22 27 30 2 3 26 34 31 35 36 38 41 42 43 46 47 49 52 53 58 61 59 60 54 55 63 64 65 66 68 78]</text>
<polyline fill="none" stroke="#0058ad" points="4991,-81.5 4991,-110.5 "/>
<text text-anchor="middle" x="5606.5" y="-92.3" font-family="Times,serif" font-size="14.00" fill="#0058ad">r 8 [4 11 7 16 17 13 14 15 20 21 27 35 34 39 23 24 38 40 41 43 30 31 32 28 36 48 44 45 52 53 55 56 58 61 62 49 50 64 60 65 66 67 68 72 73 83 74 80 87 89 90 97 100]</text>
</g>
<!-- T715&#45;&gt;T724 -->
<g id="edge2" class="edge">
<title>T715:f0&#45;&gt;T724:f1</title>
<path fill="none" stroke="#c000a5" d="M4499.5,-162.32C4499.5,-151.45 4499.5,-136.01 4499.5,-121.14"/>
<polygon fill="#c000a5" stroke="#c000a5" points="4503,-121 4499.5,-111 4496,-121 4503,-121"/>
<text text-anchor="middle" x="4509" y="-132.8" font-family="Times,serif" font-size="14.00" fill="#c000a5">wr</text>
</g>
<!-- T722 -->
<g id="node4" class="node">
<title>T722</title>
<polygon fill="none" stroke="#0058ad" points="3357.5,-0.5 3357.5,-29.5 4449.5,-29.5 4449.5,-0.5 3357.5,-0.5"/>
<text text-anchor="middle" x="3392.5" y="-11.3" font-family="Times,serif" font-size="14.00" fill="#0058ad">a 8 101</text>
<polyline fill="none" stroke="#0058ad" points="3427.5,-0.5 3427.5,-29.5 "/>
<text text-anchor="middle" x="3908" y="-11.3" font-family="Times,serif" font-size="14.00" fill="#0058ad">r 10 [1 4 6 7 8 10 11 14 15 16 17 20 21 22 27 30 2 3 26 34 31 35 36 38 41 42 43 46 47 49 52 53 58 61 59 60 54 55 63 64 65 66 68]</text>
<polyline fill="none" stroke="#0058ad" points="4388.5,-0.5 4388.5,-29.5 "/>
<text text-anchor="middle" x="4419" y="-11.3" font-family="Times,serif" font-size="14.00" fill="#0058ad">a 7 36</text>
</g>
<!-- T729&#45;&gt;T722 -->
<g id="edge3" class="edge">
<title>T729:f3&#45;&gt;T722:f0</title>
<path fill="none" stroke="#5b00c0" d="M2760.5,-96C2767.86,-96 2761.52,-85.29 2767.5,-81 2818.79,-44.16 3252.82,-17.28 3346.42,-15.14"/>
<polygon fill="#5b00c0" stroke="#5b00c0" points="3346.55,-18.64 3356.5,-15 3346.45,-11.64 3346.55,-18.64"/>
<text text-anchor="middle" x="2916" y="-51.8" font-family="Times,serif" font-size="14.00" fill="#5b00c0">rw</text>
</g>
<!-- T724&#45;&gt;T722 -->
<g id="edge4" class="edge">
<title>T724:f0&#45;&gt;T722:f0</title>
<path fill="none" stroke="#5b00c0" d="M3392.5,-81C3392.5,-62.23 3392.5,-55.12 3392.5,-40.35"/>
<polygon fill="#5b00c0" stroke="#5b00c0" points="3396,-40 3392.5,-30 3389,-40 3396,-40"/>
<text text-anchor="middle" x="3402" y="-51.8" font-family="Times,serif" font-size="14.00" fill="#5b00c0">rw</text>
</g>
<!-- T722&#45;&gt;T715 -->
<g id="edge5" class="edge">
<title>T722:f1&#45;&gt;T715:f0</title>
<path fill="none" stroke="#5b00c0" d="M3908.5,-30C3908.5,-159.03 6140.27,11.24 6230.5,-81 6239.82,-90.53 6239.79,-101.43 6230.5,-111 6166.52,-176.93 4703.71,-143.47 4542.46,-160.99"/>
<polygon fill="#5b00c0" stroke="#5b00c0" points="4541.93,-157.53 4532.56,-162.46 4542.96,-164.45 4541.93,-157.53"/>
<text text-anchor="middle" x="6247" y="-92.3" font-family="Times,serif" font-size="14.00" fill="#5b00c0">rw</text>
</g>
</g>
</svg>
