<?xml version="1.0" encoding="UTF-8" standalone="no"?>
<!DOCTYPE svg PUBLIC "-//W3C//DTD SVG 1.1//EN"
 "http://www.w3.org/Graphics/SVG/1.1/DTD/svg11.dtd">
<!-- Generated by graphviz version 2.43.0 (0)
 -->
<!-- Title: a_graph Pages: 1 -->
<svg width="4501pt" height="443pt"
 viewBox="0.00 0.00 4500.50 443.00" xmlns="http://www.w3.org/2000/svg" xmlns:xlink="http://www.w3.org/1999/xlink">
<g id="graph0" class="graph" transform="scale(1 1) rotate(0) translate(4 439)">
<title>a_graph</title>
<polygon fill="white" stroke="transparent" points="-4,4 -4,-439 4496.5,-439 4496.5,4 -4,4"/>
<!-- T917 -->
<g id="node1" class="node">
<title>T917</title>
<polygon fill="none" stroke="#0058ad" points="0,-405.5 0,-434.5 79,-434.5 79,-405.5 0,-405.5"/>
<text text-anchor="middle" x="39.5" y="-416.3" font-family="Times,serif" font-size="14.00" fill="#0058ad">a 10 119</text>
</g>
<!-- T915 -->
<g id="node5" class="node">
<title>T915</title>
<polygon fill="none" stroke="#0058ad" points="52,-324.5 52,-353.5 923,-353.5 923,-324.5 52,-324.5"/>
<text text-anchor="middle" x="91.5" y="-335.3" font-family="Times,serif" font-size="14.00" fill="#0058ad">a 10 124</text>
<polyline fill="none" stroke="#0058ad" points="131,-324.5 131,-353.5 "/>
<text text-anchor="middle" x="161.5" y="-335.3" font-family="Times,serif" font-size="14.00" fill="#0058ad">r 11 []</text>
<polyline fill="none" stroke="#0058ad" points="192,-324.5 192,-353.5 "/>
<text text-anchor="middle" x="557.5" y="-335.3" font-family="Times,serif" font-size="14.00" fill="#0058ad">r 7 [1 2 6 4 10 12 14 13 15 17 19 22 24 26 27 30 28 31 33 34 35 36 38 40 41 42 44 46 48 49 50 51]</text>
</g>
<!-- T917&#45;&gt;T915 -->
<g id="edge1" class="edge">
<title>T917:f0&#45;&gt;T915:f0</title>
<path fill="none" stroke="#c02700" d="M60.35,-405.47C72.44,-395.48 86.09,-381.01 90.24,-364.17"/>
<polygon fill="#c02700" stroke="#c02700" points="93.74,-364.36 91.5,-354 86.79,-363.49 93.74,-364.36"/>
<text text-anchor="middle" x="100" y="-375.8" font-family="Times,serif" font-size="14.00" fill="#c02700">ww</text>
</g>
<!-- T920 -->
<g id="node2" class="node">
<title>T920</title>
<polygon fill="none" stroke="#0058ad" points="0,-0.5 0,-29.5 79,-29.5 79,-0.5 0,-0.5"/>
<text text-anchor="middle" x="39.5" y="-11.3" font-family="Times,serif" font-size="14.00" fill="#0058ad">a 10 121</text>
</g>
<!-- T920&#45;&gt;T917 -->
<g id="edge2" class="edge">
<title>T920:f0&#45;&gt;T917:f0</title>
<path fill="none" stroke="#c02700" d="M34.79,-29.57C30.07,-45.47 23.5,-71.77 23.5,-95 23.5,-340 23.5,-340 23.5,-340 23.5,-358.87 27.83,-379.77 31.99,-395.48"/>
<polygon fill="#c02700" stroke="#c02700" points="28.71,-396.75 34.79,-405.43 35.45,-394.86 28.71,-396.75"/>
<text text-anchor="middle" x="36" y="-213.8" font-family="Times,serif" font-size="14.00" fill="#c02700">ww</text>
</g>
<!-- T922 -->
<g id="node3" class="node">
<title>T922</title>
<polygon fill="none" stroke="#0058ad" points="52,-162.5 52,-191.5 4431,-191.5 4431,-162.5 52,-162.5"/>
<text text-anchor="middle" x="82.5" y="-173.3" font-family="Times,serif" font-size="14.00" fill="#0058ad">a 6 30</text>
<polyline fill="none" stroke="#0058ad" points="113,-162.5 113,-191.5 "/>
<text text-anchor="middle" x="769" y="-173.3" font-family="Times,serif" font-size="14.00" fill="#0058ad">r 10 [1 4 6 7 8 10 11 14 15 16 17 20 21 22 27 30 2 3 26 34 31 35 36 38 41 42 43 46 47 49 52 53 58 61 59 60 54 55 63 64 65 66 68 78 77 85 87 75 91 92 93 94 95 103 109 110 111]</text>
<polyline fill="none" stroke="#0058ad" points="1425,-162.5 1425,-191.5 "/>
<text text-anchor="middle" x="2081" y="-173.3" font-family="Times,serif" font-size="14.00" fill="#0058ad">r 10 [1 4 6 7 8 10 11 14 15 16 17 20 21 22 27 30 2 3 26 34 31 35 36 38 41 42 43 46 47 49 52 53 58 61 59 60 54 55 63 64 65 66 68 78 77 85 87 75 91 92 93 94 95 103 109 110 111]</text>
<polyline fill="none" stroke="#0058ad" points="2737,-162.5 2737,-191.5 "/>
<text text-anchor="middle" x="3584" y="-173.3" font-family="Times,serif" font-size="14.00" fill="#0058ad">r 8 [4 11 7 16 17 13 14 15 20 21 27 35 34 39 23 24 38 40 41 43 30 31 32 28 36 48 44 45 52 53 55 56 58 61 62 49 50 64 60 65 66 67 68 72 73 83 74 80 87 89 90 97 100 101 103 104 105 106 111 99 112 114 119 122 118 127 117 121]</text>
</g>
<!-- T919 -->
<g id="node6" class="node">
<title>T919</title>
<polygon fill="none" stroke="#0058ad" points="462,-81.5 462,-110.5 3227,-110.5 3227,-81.5 462,-81.5"/>
<text text-anchor="middle" x="501.5" y="-92.3" font-family="Times,serif" font-size="14.00" fill="#0058ad">a 10 113</text>
<polyline fill="none" stroke="#0058ad" points="541,-81.5 541,-110.5 "/>
<text text-anchor="middle" x="1212.5" y="-92.3" font-family="Times,serif" font-size="14.00" fill="#0058ad">r 10 [1 4 6 7 8 10 11 14 15 16 17 20 21 22 27 30 2 3 26 34 31 35 36 38 41 42 43 46 47 49 52 53 58 61 59 60 54 55 63 64 65 66 68 78 77 85 87 75 91 92 93 94 95 103 109 110 111 113]</text>
<polyline fill="none" stroke="#0058ad" points="1884,-81.5 1884,-110.5 "/>
<text text-anchor="middle" x="2555.5" y="-92.3" font-family="Times,serif" font-size="14.00" fill="#0058ad">r 10 [1 4 6 7 8 10 11 14 15 16 17 20 21 22 27 30 2 3 26 34 31 35 36 38 41 42 43 46 47 49 52 53 58 61 59 60 54 55 63 64 65 66 68 78 77 85 87 75 91 92 93 94 95 103 109 110 111 113]</text>
</g>
<!-- T922&#45;&gt;T919 -->
<g id="edge4" class="edge">
<title>T922:f1&#45;&gt;T919:f0</title>
<path fill="none" stroke="#5b00c0" d="M768.5,-162C768.5,-44.85 517.42,-220.56 502.22,-121.13"/>
<polygon fill="#5b00c0" stroke="#5b00c0" points="505.7,-120.73 501.5,-111 498.72,-121.22 505.7,-120.73"/>
<text text-anchor="middle" x="776" y="-132.8" font-family="Times,serif" font-size="14.00" fill="#5b00c0">rw</text>
</g>
<!-- T905 -->
<g id="node7" class="node">
<title>T905</title>
<polygon fill="none" stroke="#0058ad" points="4106.5,-81.5 4106.5,-110.5 4316.5,-110.5 4316.5,-81.5 4106.5,-81.5"/>
<text text-anchor="middle" x="4141.5" y="-92.3" font-family="Times,serif" font-size="14.00" fill="#0058ad">a 8 123</text>
<polyline fill="none" stroke="#0058ad" points="4176.5,-81.5 4176.5,-110.5 "/>
<text text-anchor="middle" x="4211.5" y="-92.3" font-family="Times,serif" font-size="14.00" fill="#0058ad">a 8 124</text>
<polyline fill="none" stroke="#0058ad" points="4246.5,-81.5 4246.5,-110.5 "/>
<text text-anchor="middle" x="4281.5" y="-92.3" font-family="Times,serif" font-size="14.00" fill="#0058ad">a 8 125</text>
</g>
<!-- T922&#45;&gt;T905 -->
<g id="edge3" class="edge">
<title>T922:f3&#45;&gt;T905:f0</title>
<path fill="none" stroke="#5b00c0" d="M3584.5,-162C3584.5,-106.27 4006.52,-96.79 4095.27,-96.05"/>
<polygon fill="#5b00c0" stroke="#5b00c0" points="4095.52,-99.55 4105.5,-96 4095.48,-92.55 4095.52,-99.55"/>
<text text-anchor="middle" x="3652" y="-132.8" font-family="Times,serif" font-size="14.00" fill="#5b00c0">rw</text>
</g>
<!-- T923 -->
<g id="node4" class="node">
<title>T923</title>
<polygon fill="none" stroke="#0058ad" points="457,-243.5 457,-272.5 946,-272.5 946,-243.5 457,-243.5"/>
<text text-anchor="middle" x="492" y="-254.3" font-family="Times,serif" font-size="14.00" fill="#0058ad">a 8 126</text>
<polyline fill="none" stroke="#0058ad" points="527,-243.5 527,-272.5 "/>
<text text-anchor="middle" x="557.5" y="-254.3" font-family="Times,serif" font-size="14.00" fill="#0058ad">a 7 47</text>
<polyline fill="none" stroke="#0058ad" points="588,-243.5 588,-272.5 "/>
<text text-anchor="middle" x="767" y="-254.3" font-family="Times,serif" font-size="14.00" fill="#0058ad">r 6 [2 7 8 10 11 13 14 15 16 22 25 26 28 32 33]</text>
</g>
<!-- T923&#45;&gt;T922 -->
<g id="edge5" class="edge">
<title>T923:f2&#45;&gt;T922:f0</title>
<path fill="none" stroke="#5b00c0" d="M767.5,-243C767.5,-93.93 114.23,-332.95 83.61,-202.07"/>
<polygon fill="#5b00c0" stroke="#5b00c0" points="87.08,-201.56 82.5,-192 80.12,-202.32 87.08,-201.56"/>
<text text-anchor="middle" x="770" y="-213.8" font-family="Times,serif" font-size="14.00" fill="#5b00c0">rw</text>
</g>
<!-- T915&#45;&gt;T923 -->
<g id="edge6" class="edge">
<title>T915:f2&#45;&gt;T923:f1</title>
<path fill="none" stroke="#5b00c0" d="M557.5,-324C557.5,-305.23 557.5,-298.12 557.5,-283.35"/>
<polygon fill="#5b00c0" stroke="#5b00c0" points="561,-283 557.5,-273 554,-283 561,-283"/>
<text text-anchor="middle" x="567" y="-294.8" font-family="Times,serif" font-size="14.00" fill="#5b00c0">rw</text>
</g>
<!-- T919&#45;&gt;T920 -->
<g id="edge7" class="edge">
<title>T919:f0&#45;&gt;T920:f0</title>
<path fill="none" stroke="#c02700" d="M460.5,-96C291.57,-96 246.34,-76.59 86.5,-32.2"/>
<polygon fill="#c02700" stroke="#c02700" points="87.38,-28.82 76.81,-29.52 85.52,-35.56 87.38,-28.82"/>
<text text-anchor="middle" x="208" y="-51.8" font-family="Times,serif" font-size="14.00" fill="#c02700">ww</text>
</g>
<!-- T905&#45;&gt;T923 -->
<g id="edge8" class="edge">
<title>T905:f2&#45;&gt;T923:f0</title>
<path fill="none" stroke="#c02700" d="M4317.5,-96C4513.92,-96 4519.7,-110.76 4439.5,-192 4420.8,-210.94 718.34,-215.33 501.42,-240.65"/>
<polygon fill="#c02700" stroke="#c02700" points="500.42,-237.29 491.5,-243 502.04,-244.1 500.42,-237.29"/>
<text text-anchor="middle" x="4480" y="-173.3" font-family="Times,serif" font-size="14.00" fill="#c02700">ww</text>
</g>
</g>
</svg>
