<?xml version="1.0" encoding="UTF-8" standalone="no"?>
<!DOCTYPE svg PUBLIC "-//W3C//DTD SVG 1.1//EN"
 "http://www.w3.org/Graphics/SVG/1.1/DTD/svg11.dtd">
<!-- Generated by graphviz version 2.43.0 (0)
 -->
<!-- Title: a_graph Pages: 1 -->
<svg width="1977pt" height="119pt"
 viewBox="0.00 0.00 1977.00 119.00" xmlns="http://www.w3.org/2000/svg" xmlns:xlink="http://www.w3.org/1999/xlink">
<g id="graph0" class="graph" transform="scale(1 1) rotate(0) translate(4 115)">
<title>a_graph</title>
<polygon fill="white" stroke="transparent" points="-4,4 -4,-115 1973,-115 1973,4 -4,4"/>
<!-- T2006 -->
<g id="node1" class="node">
<title>T2006</title>
<polygon fill="none" stroke="#0058ad" points="1159,-81.5 1159,-110.5 1969,-110.5 1969,-81.5 1159,-81.5"/>
<text text-anchor="middle" x="1241" y="-92.3" font-family="Times,serif" font-size="14.00" fill="#0058ad">r 14 [2 5 7 8 3 4 1 6]</text>
<polyline fill="none" stroke="#0058ad" points="1323,-81.5 1323,-110.5 "/>
<text text-anchor="middle" x="1362.5" y="-92.3" font-family="Times,serif" font-size="14.00" fill="#0058ad">a 11 127</text>
<polyline fill="none" stroke="#0058ad" points="1402,-81.5 1402,-110.5 "/>
<text text-anchor="middle" x="1603.5" y="-92.3" font-family="Times,serif" font-size="14.00" fill="#0058ad">r 5 [1 5 6 11 13 12 14 18 20 21 22 24 25 27 28 29 30]</text>
<polyline fill="none" stroke="#0058ad" points="1805,-81.5 1805,-110.5 "/>
<text text-anchor="middle" x="1887" y="-92.3" font-family="Times,serif" font-size="14.00" fill="#0058ad">r 14 [2 5 7 8 3 4 1 6]</text>
</g>
<!-- T1996 -->
<g id="node2" class="node">
<title>T1996</title>
<polygon fill="none" stroke="#0058ad" points="0,-0.5 0,-29.5 1852,-29.5 1852,-0.5 0,-0.5"/>
<text text-anchor="middle" x="856" y="-11.3" font-family="Times,serif" font-size="14.00" fill="#0058ad">r 11 [1 2 3 7 11 4 5 17 18 22 34 30 36 31 44 39 45 46 43 48 42 47 51 52 50 53 55 56 60 58 61 62 59 66 67 71 65 69 70 75 78 80 81 83 85 86 84 90 87 95 89 92 93 97 103 102 104 105 100 101 98 106 107 116 117 118 109 110 122 115]</text>
<polyline fill="none" stroke="#0058ad" points="1712,-0.5 1712,-29.5 "/>
<text text-anchor="middle" x="1747" y="-11.3" font-family="Times,serif" font-size="14.00" fill="#0058ad">a 14 17</text>
<polyline fill="none" stroke="#0058ad" points="1782,-0.5 1782,-29.5 "/>
<text text-anchor="middle" x="1817" y="-11.3" font-family="Times,serif" font-size="14.00" fill="#0058ad">a 14 18</text>
</g>
<!-- T2006&#45;&gt;T1996 -->
<g id="edge1" class="edge">
<title>T2006:f0&#45;&gt;T1996:f1</title>
<path fill="none" stroke="#5b00c0" d="M1241,-81C1241,-50.57 1271.68,-56.16 1301,-48 1322.88,-41.91 1678.91,-52.68 1738.55,-35.47"/>
<polygon fill="#5b00c0" stroke="#5b00c0" points="1740.51,-38.38 1747,-30 1736.7,-32.5 1740.51,-38.38"/>
<text text-anchor="middle" x="1310.5" y="-51.8" font-family="Times,serif" font-size="14.00" fill="#5b00c0">rw</text>
</g>
<!-- T1996&#45;&gt;T2006 -->
<g id="edge2" class="edge">
<title>T1996:f0&#45;&gt;T2006:f1</title>
<path fill="none" stroke="#5b00c0" d="M856,-30C856,-55.8 1295.79,-39.1 1320,-48 1338.63,-54.85 1355.46,-56.72 1360.48,-71.01"/>
<polygon fill="#5b00c0" stroke="#5b00c0" points="1357.04,-71.64 1362,-81 1363.96,-70.59 1357.04,-71.64"/>
<text text-anchor="middle" x="1364.5" y="-51.8" font-family="Times,serif" font-size="14.00" fill="#5b00c0">rw</text>
</g>
</g>
</svg>
