<?xml version="1.0" encoding="UTF-8" standalone="no"?>
<!DOCTYPE svg PUBLIC "-//W3C//DTD SVG 1.1//EN"
 "http://www.w3.org/Graphics/SVG/1.1/DTD/svg11.dtd">
<!-- Generated by graphviz version 2.43.0 (0)
 -->
<!-- Title: a_graph Pages: 1 -->
<svg width="2779pt" height="200pt"
 viewBox="0.00 0.00 2779.00 200.00" xmlns="http://www.w3.org/2000/svg" xmlns:xlink="http://www.w3.org/1999/xlink">
<g id="graph0" class="graph" transform="scale(1 1) rotate(0) translate(4 196)">
<title>a_graph</title>
<polygon fill="white" stroke="transparent" points="-4,4 -4,-196 2775,-196 2775,4 -4,4"/>
<!-- T407 -->
<g id="node1" class="node">
<title>T407</title>
<polygon fill="none" stroke="#0058ad" points="867,-162.5 867,-191.5 2771,-191.5 2771,-162.5 867,-162.5"/>
<text text-anchor="middle" x="1185.5" y="-173.3" font-family="Times,serif" font-size="14.00" fill="#0058ad">r 8 [4 11 7 16 17 13 14 15 20 21 27 35 34 39 23 24 38 40 41 43 30 31 32 28 36 48 44]</text>
<polyline fill="none" stroke="#0058ad" points="1504,-162.5 1504,-191.5 "/>
<text text-anchor="middle" x="2137.5" y="-173.3" font-family="Times,serif" font-size="14.00" fill="#0058ad">r 9 [1 2 5 15 16 35 30 27 28 50 58 61 62 66 41 67 43 44 45 57 74 75 48 49 76 77 78 82 83 84 85 72 73 94 95 96 97 87 105 106 111 108 92 93 115 101 102 116 118 119 120]</text>
</g>
<!-- T431 -->
<g id="node3" class="node">
<title>T431</title>
<polygon fill="none" stroke="#0058ad" points="0,-81.5 0,-110.5 1892,-110.5 1892,-81.5 0,-81.5"/>
<text text-anchor="middle" x="586" y="-92.3" font-family="Times,serif" font-size="14.00" fill="#0058ad">r 9 [1 2 5 15 16 35 30 27 28 50 58 61 62 66 41 67 43 44 45 57 74 75 48 49 76 77 78 82 83 84 85 72 73 94 95 96 97 87 105 106 111 108 92 93 115 101 102 116]</text>
<polyline fill="none" stroke="#0058ad" points="1172,-81.5 1172,-110.5 "/>
<text text-anchor="middle" x="1202.5" y="-92.3" font-family="Times,serif" font-size="14.00" fill="#0058ad">a 8 45</text>
<polyline fill="none" stroke="#0058ad" points="1233,-81.5 1233,-110.5 "/>
<text text-anchor="middle" x="1562.5" y="-92.3" font-family="Times,serif" font-size="14.00" fill="#0058ad">r 8 [4 11 7 16 17 13 14 15 20 21 27 35 34 39 23 24 38 40 41 43 30 31 32 28 36 48 44 45]</text>
</g>
<!-- T407&#45;&gt;T431 -->
<g id="edge1" class="edge">
<title>T407:f0&#45;&gt;T431:f1</title>
<path fill="none" stroke="#5b00c0" d="M1185,-162C1185,-141.91 1197.58,-136.57 1201.71,-121.31"/>
<polygon fill="#5b00c0" stroke="#5b00c0" points="1205.23,-121.36 1203,-111 1198.28,-120.49 1205.23,-121.36"/>
<text text-anchor="middle" x="1208.5" y="-132.8" font-family="Times,serif" font-size="14.00" fill="#5b00c0">rw</text>
</g>
<!-- T429 -->
<g id="node2" class="node">
<title>T429</title>
<polygon fill="none" stroke="#0058ad" points="623.5,-0.5 623.5,-29.5 2068.5,-29.5 2068.5,-0.5 623.5,-0.5"/>
<text text-anchor="middle" x="658.5" y="-11.3" font-family="Times,serif" font-size="14.00" fill="#0058ad">a 9 118</text>
<polyline fill="none" stroke="#0058ad" points="693.5,-0.5 693.5,-29.5 "/>
<text text-anchor="middle" x="728.5" y="-11.3" font-family="Times,serif" font-size="14.00" fill="#0058ad">a 9 119</text>
<polyline fill="none" stroke="#0058ad" points="763.5,-0.5 763.5,-29.5 "/>
<text text-anchor="middle" x="1381" y="-11.3" font-family="Times,serif" font-size="14.00" fill="#0058ad">r 9 [1 2 5 15 16 35 30 27 28 50 58 61 62 66 41 67 43 44 45 57 74 75 48 49 76 77 78 82 83 84 85 72 73 94 95 96 97 87 105 106 111 108 92 93 115 101 102 116 118 119]</text>
<polyline fill="none" stroke="#0058ad" points="1998.5,-0.5 1998.5,-29.5 "/>
<text text-anchor="middle" x="2033.5" y="-11.3" font-family="Times,serif" font-size="14.00" fill="#0058ad">a 9 120</text>
</g>
<!-- T429&#45;&gt;T407 -->
<g id="edge2" class="edge">
<title>T429:f3&#45;&gt;T407:f1</title>
<path fill="none" stroke="#c000a5" d="M2070,-15C2138.61,-15 2138.21,-83.15 2138.02,-151.87"/>
<polygon fill="#c000a5" stroke="#c000a5" points="2134.52,-151.99 2138,-162 2141.52,-152.01 2134.52,-151.99"/>
<text text-anchor="middle" x="2146.5" y="-92.3" font-family="Times,serif" font-size="14.00" fill="#c000a5">wr</text>
</g>
<!-- T431&#45;&gt;T429 -->
<g id="edge3" class="edge">
<title>T431:f0&#45;&gt;T429:f0</title>
<path fill="none" stroke="#5b00c0" d="M586,-81C586,-45.77 644.12,-64.33 655.92,-40.03"/>
<polygon fill="#5b00c0" stroke="#5b00c0" points="659.4,-40.5 658,-30 652.54,-39.08 659.4,-40.5"/>
<text text-anchor="middle" x="657.5" y="-51.8" font-family="Times,serif" font-size="14.00" fill="#5b00c0">rw</text>
</g>
</g>
</svg>
