<?xml version="1.0" encoding="UTF-8" standalone="no"?>
<!DOCTYPE svg PUBLIC "-//W3C//DTD SVG 1.1//EN"
 "http://www.w3.org/Graphics/SVG/1.1/DTD/svg11.dtd">
<!-- Generated by graphviz version 2.43.0 (0)
 -->
<!-- Title: a_graph Pages: 1 -->
<svg width="3742pt" height="119pt"
 viewBox="0.00 0.00 3742.00 119.00" xmlns="http://www.w3.org/2000/svg" xmlns:xlink="http://www.w3.org/1999/xlink">
<g id="graph0" class="graph" transform="scale(1 1) rotate(0) translate(4 115)">
<title>a_graph</title>
<polygon fill="white" stroke="transparent" points="-4,4 -4,-115 3738,-115 3738,4 -4,4"/>
<!-- T1814 -->
<g id="node1" class="node">
<title>T1814</title>
<polygon fill="none" stroke="#0058ad" points="818,-81.5 818,-110.5 3734,-110.5 3734,-81.5 818,-81.5"/>
<text text-anchor="middle" x="853" y="-92.3" font-family="Times,serif" font-size="14.00" fill="#0058ad">a 11 92</text>
<polyline fill="none" stroke="#0058ad" points="888,-81.5 888,-110.5 "/>
<text text-anchor="middle" x="1483" y="-92.3" font-family="Times,serif" font-size="14.00" fill="#0058ad">r 13 [3 4 5 6 8 7 12 16 9 1 19 20 21 24 2 32 33 13 14 15 17 18 37 31 43 44 45 35 36 58 59 55 56 70 77 62 81 82 83 84 71 66 67 86 87 78 79 80 68 65 90 91 94 75]</text>
<polyline fill="none" stroke="#0058ad" points="2078,-81.5 2078,-110.5 "/>
<text text-anchor="middle" x="2113" y="-92.3" font-family="Times,serif" font-size="14.00" fill="#0058ad">a 11 93</text>
<polyline fill="none" stroke="#0058ad" points="2148,-81.5 2148,-110.5 "/>
<text text-anchor="middle" x="2941" y="-92.3" font-family="Times,serif" font-size="14.00" fill="#0058ad">r 7 [1 2 6 4 10 12 14 13 15 17 19 22 24 26 27 30 28 31 33 34 35 36 38 40 41 42 44 46 48 49 50 51 47 52 53 54 55 58 56 59 61 60 62 68 69 70 71 66 73 72 74 77 79 76 78 75 80 82 83 84 86 85 89 92 91 93 94 95 97 98]</text>
</g>
<!-- T1816 -->
<g id="node2" class="node">
<title>T1816</title>
<polygon fill="none" stroke="#0058ad" points="0,-0.5 0,-29.5 2876,-29.5 2876,-0.5 0,-0.5"/>
<text text-anchor="middle" x="35" y="-11.3" font-family="Times,serif" font-size="14.00" fill="#0058ad">a 13 98</text>
<polyline fill="none" stroke="#0058ad" points="70,-0.5 70,-29.5 "/>
<text text-anchor="middle" x="863" y="-11.3" font-family="Times,serif" font-size="14.00" fill="#0058ad">r 7 [1 2 6 4 10 12 14 13 15 17 19 22 24 26 27 30 28 31 33 34 35 36 38 40 41 42 44 46 48 49 50 51 47 52 53 54 55 58 56 59 61 60 62 68 69 70 71 66 73 72 74 77 79 76 78 75 80 82 83 84 86 85 89 92 91 93 94 95 97 98]</text>
<polyline fill="none" stroke="#0058ad" points="1656,-0.5 1656,-29.5 "/>
<text text-anchor="middle" x="1691" y="-11.3" font-family="Times,serif" font-size="14.00" fill="#0058ad">a 13 99</text>
<polyline fill="none" stroke="#0058ad" points="1726,-0.5 1726,-29.5 "/>
<text text-anchor="middle" x="2301" y="-11.3" font-family="Times,serif" font-size="14.00" fill="#0058ad">r 11 [1 2 3 7 11 4 5 17 18 22 34 30 36 31 44 39 45 46 43 48 42 47 51 52 50 53 55 56 60 58 61 62 59 66 67 71 65 69 70 75 78 80 81 83 85 86 84 90 87 95 89]</text>
</g>
<!-- T1814&#45;&gt;T1816 -->
<g id="edge1" class="edge">
<title>T1814:f1&#45;&gt;T1816:f0</title>
<path fill="none" stroke="#5b00c0" d="M1483,-81C1483,21.48 1125.38,-52.6 1023,-48 1010.11,-47.42 147.67,-44.15 44.96,-32.35"/>
<polygon fill="#5b00c0" stroke="#5b00c0" points="45.54,-28.89 35,-30 43.93,-35.7 45.54,-28.89"/>
<text text-anchor="middle" x="1486.5" y="-51.8" font-family="Times,serif" font-size="14.00" fill="#5b00c0">rw</text>
</g>
<!-- T1816&#45;&gt;T1814 -->
<g id="edge2" class="edge">
<title>T1816:f3&#45;&gt;T1814:f0</title>
<path fill="none" stroke="#5b00c0" d="M2301,-30C2301,-48.07 1017.95,-45.88 1000,-48 937.14,-55.41 861.76,-18.46 853.71,-70.96"/>
<polygon fill="#5b00c0" stroke="#5b00c0" points="850.21,-70.78 853,-81 857.19,-71.27 850.21,-70.78"/>
<text text-anchor="middle" x="1009.5" y="-51.8" font-family="Times,serif" font-size="14.00" fill="#5b00c0">rw</text>
</g>
</g>
</svg>
