<?xml version="1.0" encoding="UTF-8" standalone="no"?>
<!DOCTYPE svg PUBLIC "-//W3C//DTD SVG 1.1//EN"
 "http://www.w3.org/Graphics/SVG/1.1/DTD/svg11.dtd">
<!-- Generated by graphviz version 2.43.0 (0)
 -->
<!-- Title: a_graph Pages: 1 -->
<svg width="2243pt" height="200pt"
 viewBox="0.00 0.00 2243.00 200.00" xmlns="http://www.w3.org/2000/svg" xmlns:xlink="http://www.w3.org/1999/xlink">
<g id="graph0" class="graph" transform="scale(1 1) rotate(0) translate(4 196)">
<title>a_graph</title>
<polygon fill="white" stroke="transparent" points="-4,4 -4,-196 2239,-196 2239,4 -4,4"/>
<!-- T2045 -->
<g id="node1" class="node">
<title>T2045</title>
<polygon fill="none" stroke="#0058ad" points="2050.5,-162.5 2050.5,-191.5 2181.5,-191.5 2181.5,-162.5 2050.5,-162.5"/>
<text text-anchor="middle" x="2081" y="-173.3" font-family="Times,serif" font-size="14.00" fill="#0058ad">r 15 []</text>
<polyline fill="none" stroke="#0058ad" points="2111.5,-162.5 2111.5,-191.5 "/>
<text text-anchor="middle" x="2146.5" y="-173.3" font-family="Times,serif" font-size="14.00" fill="#0058ad">a 14 26</text>
</g>
<!-- T2043 -->
<g id="node2" class="node">
<title>T2043</title>
<polygon fill="none" stroke="#0058ad" points="538.5,-81.5 538.5,-110.5 2185.5,-110.5 2185.5,-81.5 538.5,-81.5"/>
<text text-anchor="middle" x="688" y="-92.3" font-family="Times,serif" font-size="14.00" fill="#0058ad">r 14 [2 5 7 8 3 4 1 6 17 18 19 20 21 23]</text>
<polyline fill="none" stroke="#0058ad" points="837.5,-81.5 837.5,-110.5 "/>
<text text-anchor="middle" x="1331.5" y="-92.3" font-family="Times,serif" font-size="14.00" fill="#0058ad">r 6 [2 7 8 10 11 13 14 15 16 22 25 26 28 32 33 30 35 36 37 39 40 43 44 45 46 48 50 49 52 53 56 58 57 59 60 63 64 61 65 66 67 68 69]</text>
<polyline fill="none" stroke="#0058ad" points="1825.5,-81.5 1825.5,-110.5 "/>
<text text-anchor="middle" x="1856" y="-92.3" font-family="Times,serif" font-size="14.00" fill="#0058ad">a 15 1</text>
<polyline fill="none" stroke="#0058ad" points="1886.5,-81.5 1886.5,-110.5 "/>
<text text-anchor="middle" x="2036" y="-92.3" font-family="Times,serif" font-size="14.00" fill="#0058ad">r 14 [2 5 7 8 3 4 1 6 17 18 19 20 21 23]</text>
</g>
<!-- T2045&#45;&gt;T2043 -->
<g id="edge1" class="edge">
<title>T2045:f0&#45;&gt;T2043:f2</title>
<path fill="none" stroke="#5b00c0" d="M2049,-177C2007.21,-177 1878.45,-159.43 1858.58,-121.17"/>
<polygon fill="#5b00c0" stroke="#5b00c0" points="1861.85,-119.83 1856,-111 1855.07,-121.55 1861.85,-119.83"/>
<text text-anchor="middle" x="1894.5" y="-132.8" font-family="Times,serif" font-size="14.00" fill="#5b00c0">rw</text>
</g>
<!-- T2041 -->
<g id="node3" class="node">
<title>T2041</title>
<polygon fill="none" stroke="#0058ad" points="0,-0.5 0,-29.5 1868,-29.5 1868,-0.5 0,-0.5"/>
<text text-anchor="middle" x="903.5" y="-11.3" font-family="Times,serif" font-size="14.00" fill="#0058ad">r 11 [1 2 3 7 11 4 5 17 18 22 34 30 36 31 44 39 45 46 43 48 42 47 51 52 50 53 55 56 60 58 61 62 59 66 67 71 65 69 70 75 78 80 81 83 85 86 84 90 87 95 89 92 93 97 103 102 104 105 100 101 98 106 107 116 117 118 109 110 122 115 127 113 119]</text>
<polyline fill="none" stroke="#0058ad" points="1807,-0.5 1807,-29.5 "/>
<text text-anchor="middle" x="1837.5" y="-11.3" font-family="Times,serif" font-size="14.00" fill="#0058ad">a 14 9</text>
</g>
<!-- T2043&#45;&gt;T2041 -->
<g id="edge2" class="edge">
<title>T2043:f0&#45;&gt;T2041:f1</title>
<path fill="none" stroke="#5b00c0" d="M688,-81C688,171.31 1806.77,-273.35 1837.36,-40.09"/>
<polygon fill="#5b00c0" stroke="#5b00c0" points="1840.86,-40.2 1838,-30 1833.88,-39.76 1840.86,-40.2"/>
<text text-anchor="middle" x="1841.5" y="-51.8" font-family="Times,serif" font-size="14.00" fill="#5b00c0">rw</text>
</g>
<!-- T2041&#45;&gt;T2045 -->
<g id="edge3" class="edge">
<title>T2041:f1&#45;&gt;T2045:f1</title>
<path fill="none" stroke="#c02700" d="M1869,-15C1942.91,-15 2148.21,-23.78 2195,-81 2219.88,-111.42 2225.18,-166.44 2193.06,-175.67"/>
<polygon fill="#c02700" stroke="#c02700" points="2192.45,-172.22 2183,-177 2193.37,-179.16 2192.45,-172.22"/>
<text text-anchor="middle" x="2222.5" y="-92.3" font-family="Times,serif" font-size="14.00" fill="#c02700">ww</text>
</g>
</g>
</svg>
