<?xml version="1.0" encoding="UTF-8" standalone="no"?>
<!DOCTYPE svg PUBLIC "-//W3C//DTD SVG 1.1//EN"
 "http://www.w3.org/Graphics/SVG/1.1/DTD/svg11.dtd">
<!-- Generated by graphviz version 2.43.0 (0)
 -->
<!-- Title: a_graph Pages: 1 -->
<svg width="1503pt" height="200pt"
 viewBox="0.00 0.00 1503.00 200.00" xmlns="http://www.w3.org/2000/svg" xmlns:xlink="http://www.w3.org/1999/xlink">
<g id="graph0" class="graph" transform="scale(1 1) rotate(0) translate(4 196)">
<title>a_graph</title>
<polygon fill="white" stroke="transparent" points="-4,4 -4,-196 1499,-196 1499,4 -4,4"/>
<!-- T508 -->
<g id="node1" class="node">
<title>T508</title>
<polygon fill="none" stroke="#0058ad" points="0,-162.5 0,-191.5 1495,-191.5 1495,-162.5 0,-162.5"/>
<text text-anchor="middle" x="30.5" y="-173.3" font-family="Times,serif" font-size="14.00" fill="#0058ad">a 8 66</text>
<polyline fill="none" stroke="#0058ad" points="61,-162.5 61,-191.5 "/>
<text text-anchor="middle" x="537" y="-173.3" font-family="Times,serif" font-size="14.00" fill="#0058ad">r 8 [4 11 7 16 17 13 14 15 20 21 27 35 34 39 23 24 38 40 41 43 30 31 32 28 36 48 44 45 52 53 55 56 58 61 62 49 50 64 60 65 66]</text>
<polyline fill="none" stroke="#0058ad" points="1013,-162.5 1013,-191.5 "/>
<text text-anchor="middle" x="1223.5" y="-173.3" font-family="Times,serif" font-size="14.00" fill="#0058ad">r 10 [1 4 6 7 8 10 11 14 15 16 17 20 21 22 27 30 2 3 26]</text>
<polyline fill="none" stroke="#0058ad" points="1434,-162.5 1434,-191.5 "/>
<text text-anchor="middle" x="1464.5" y="-173.3" font-family="Times,serif" font-size="14.00" fill="#0058ad">a 8 67</text>
</g>
<!-- T497 -->
<g id="node2" class="node">
<title>T497</title>
<polygon fill="none" stroke="#0058ad" points="908,-81.5 908,-110.5 1133,-110.5 1133,-81.5 908,-81.5"/>
<text text-anchor="middle" x="943" y="-92.3" font-family="Times,serif" font-size="14.00" fill="#0058ad">a 10 34</text>
<polyline fill="none" stroke="#0058ad" points="978,-81.5 978,-110.5 "/>
<text text-anchor="middle" x="1055.5" y="-92.3" font-family="Times,serif" font-size="14.00" fill="#0058ad">r 6 [2 7 8 10 11 13]</text>
</g>
<!-- T508&#45;&gt;T497 -->
<g id="edge1" class="edge">
<title>T508:f2&#45;&gt;T497:f0</title>
<path fill="none" stroke="#5b00c0" d="M1223.5,-162C1223.5,-38.67 958.19,-226.7 943.16,-121.01"/>
<polygon fill="#5b00c0" stroke="#5b00c0" points="946.65,-120.75 942.5,-111 939.67,-121.21 946.65,-120.75"/>
<text text-anchor="middle" x="1230" y="-132.8" font-family="Times,serif" font-size="14.00" fill="#5b00c0">rw</text>
</g>
<!-- T502 -->
<g id="node3" class="node">
<title>T502</title>
<polygon fill="none" stroke="#0058ad" points="385.5,-0.5 385.5,-29.5 1427.5,-29.5 1427.5,-0.5 385.5,-0.5"/>
<text text-anchor="middle" x="411.5" y="-11.3" font-family="Times,serif" font-size="14.00" fill="#0058ad">a 2 3</text>
<polyline fill="none" stroke="#0058ad" points="437.5,-0.5 437.5,-29.5 "/>
<text text-anchor="middle" x="468" y="-11.3" font-family="Times,serif" font-size="14.00" fill="#0058ad">a 6 14</text>
<polyline fill="none" stroke="#0058ad" points="498.5,-0.5 498.5,-29.5 "/>
<text text-anchor="middle" x="963" y="-11.3" font-family="Times,serif" font-size="14.00" fill="#0058ad">r 8 [4 11 7 16 17 13 14 15 20 21 27 35 34 39 23 24 38 40 41 43 30 31 32 28 36 48 44 45 52 53 55 56 58 61 62 49 50 64 60 65]</text>
</g>
<!-- T497&#45;&gt;T502 -->
<g id="edge2" class="edge">
<title>T497:f1&#45;&gt;T502:f1</title>
<path fill="none" stroke="#5b00c0" d="M1055.5,-81C1055.5,-65.85 553.67,-49.16 477.22,-33.78"/>
<polygon fill="#5b00c0" stroke="#5b00c0" points="478.09,-30.36 467.5,-30 475.55,-36.89 478.09,-30.36"/>
<text text-anchor="middle" x="891" y="-51.8" font-family="Times,serif" font-size="14.00" fill="#5b00c0">rw</text>
</g>
<!-- T502&#45;&gt;T508 -->
<g id="edge3" class="edge">
<title>T502:f2&#45;&gt;T508:f0</title>
<path fill="none" stroke="#5b00c0" d="M963.5,-30C963.5,-48.19 654.56,-45.81 636.5,-48 367.88,-80.52 38.97,107.19 30.66,-151.79"/>
<polygon fill="#5b00c0" stroke="#5b00c0" points="27.16,-151.95 30.5,-162 34.16,-152.06 27.16,-151.95"/>
<text text-anchor="middle" x="55" y="-92.3" font-family="Times,serif" font-size="14.00" fill="#5b00c0">rw</text>
</g>
</g>
</svg>
